<?xml version="1.0" standalone="no"?>
<!DOCTYPE svg PUBLIC "-//W3C//DTD SVG 1.1//EN" "http://www.w3.org/Graphics/SVG/1.1/DTD/svg11.dtd" >
<svg xmlns="http://www.w3.org/2000/svg" xmlns:xlink="http://www.w3.org/1999/xlink" version="1.1">
<metadata></metadata>
<defs>
<font id="aktiv_grotesk_exbold" horiz-adv-x="700" >
<font-face units-per-em="1000" ascent="800" descent="-200" />
<missing-glyph horiz-adv-x="274" />
<glyph horiz-adv-x="0" />
<glyph horiz-adv-x="0" />
<glyph unicode="&#xd;" horiz-adv-x="274" />
<glyph unicode=" "  horiz-adv-x="274" />
<glyph unicode="&#x09;" horiz-adv-x="274" />
<glyph unicode="&#xa0;" horiz-adv-x="274" />
<glyph unicode="!" horiz-adv-x="322" d="M71 714h180l-14 -496h-152zM79 152h164v-152h-164v152z" />
<glyph unicode="&#x22;" horiz-adv-x="453" d="M42 714h148l-7 -274h-134zM263 714h148l-7 -274h-134z" />
<glyph unicode="#" d="M371 0l26 154h-158l-26 -154h-136l26 154h-89v116h108l26 151h-91v116h110l26 154h136l-26 -154h158l26 154h136l-26 -154h89v-116h-108l-26 -151h91v-116h-110l-26 -154h-136zM258 270h158l26 151h-158z" />
<glyph unicode="$" d="M321 -119v103q-130 8 -206.5 64.5t-86.5 167.5h157q15 -99 136 -113v186q-146 17 -209.5 72.5t-63.5 138.5q0 93 71 148.5t202 61.5v92h70v-92q109 -6 181.5 -53.5t89.5 -151.5l-151 -16q-14 47 -42.5 71t-77.5 30v-171q153 -18 218 -75.5t65 -146.5q0 -68 -35.5 -114 t-99 -71t-148.5 -28v-103h-70zM516 189q0 41 -27 63.5t-86 28.5l-12 1v-181q54 3 89.5 23.5t35.5 64.5zM321 426v166q-51 -2 -85.5 -19.5t-34.5 -61.5q0 -35 26.5 -57t93.5 -28z" />
<glyph unicode="%" horiz-adv-x="1155" d="M705 691h152l-407 -691h-151zM1118 204q0 -100 -56 -158.5t-154 -58.5t-153 57.5t-55 157.5q0 101 56.5 159t153.5 58q98 0 153 -57t55 -158zM845.5 113q20.5 -29 63.5 -29t63.5 29t20.5 90q0 62 -20 91t-64 29q-84 0 -84 -120q0 -61 20.5 -90zM455 489 q0 -100 -56 -158.5t-154 -58.5t-153 57.5t-55 157.5q0 101 56.5 159t153.5 58q98 0 153 -57t55 -158zM182.5 398q20.5 -29 63.5 -29t63.5 29t20.5 90q0 62 -20 91t-64 29q-84 0 -84 -120q0 -61 20.5 -90z" />
<glyph unicode="&#x26;" horiz-adv-x="819" d="M128 552q0 51 29.5 90t81.5 60.5t121 21.5q102 0 162.5 -44t60.5 -117q0 -57 -37.5 -103t-121.5 -89l167 -154q17 27 26.5 61t10.5 76h141q-1 -69 -21.5 -126.5t-56.5 -101.5l137 -126h-195l-45 42q-103 -58 -240 -58q-154 0 -236.5 54t-82.5 156q0 127 176 205 q-42 45 -59.5 81.5t-17.5 71.5zM292 316q-52 -27 -76 -52.5t-24 -56.5q0 -51 44 -78.5t126 -27.5q33 0 66.5 7t64.5 22zM362 613q-42 0 -64.5 -17t-22.5 -48q0 -26 15.5 -48t52.5 -55q55 26 77.5 49.5t22.5 52.5q0 31 -22 48.5t-59 17.5z" />
<glyph unicode="'" horiz-adv-x="232" d="M42 714h148l-7 -274h-134z" />
<glyph unicode="(" horiz-adv-x="381" d="M203 734h160q-71 -105 -103.5 -207.5t-32.5 -221.5q0 -118 32.5 -221t103.5 -208h-160q-73 89 -112 196t-39 233t39 233.5t112 195.5z" />
<glyph unicode=")" horiz-adv-x="381" d="M329 305q0 -126 -39 -233t-112 -196h-160q72 105 104 207.5t32 221.5t-32 221.5t-104 207.5h160q73 -88 112 -195.5t39 -233.5z" />
<glyph unicode="*" horiz-adv-x="491" d="M176 714h139l-20 -144l120 67l50 -125l-145 -36l110 -107l-108 -81l-76 129l-77 -129l-108 81l109 108l-144 35l50 125l120 -67z" />
<glyph unicode="+" d="M275 272h-207v137h207v210h150v-210h207v-137h-207v-211h-150v211z" />
<glyph unicode="," horiz-adv-x="303" d="M82 171h166l-77 -272h-133z" />
<glyph unicode="-" horiz-adv-x="487" d="M45 370h397v-145h-397v145z" />
<glyph unicode="." horiz-adv-x="303" d="M69 171h165v-171h-165v171z" />
<glyph unicode="/" horiz-adv-x="459" d="M291 734h161l-284 -734h-161z" />
<glyph unicode="0" d="M120 620q81 90 232 90q157 0 233 -90.5t76 -272.5q0 -185 -80.5 -275t-232.5 -90q-157 0 -233 91t-76 272q0 185 81 275zM456 523.5q-34 51.5 -106 51.5t-106 -51.5t-34 -178.5q0 -125 34 -176.5t106 -51.5t106 51.5t34 178.5q0 125 -34 176.5z" />
<glyph unicode="1" d="M500 0h-170v507l-157 -97l-75 117l257 164h145v-691z" />
<glyph unicode="2" d="M632 0h-571v123q67 46 119 82.5t101 71.5q57 41 93.5 70.5t56.5 51.5t27.5 42t7.5 42q0 95 -119 95q-57 0 -88.5 -23.5t-45.5 -76.5l-160 17q20 105 97 160t204 55q133 0 207.5 -56t74.5 -156q0 -47 -16.5 -86t-56 -79t-108.5 -91q-37 -28 -71.5 -52t-82.5 -56h349z" />
<glyph unicode="3" d="M266 418h86q57 0 87.5 21.5t30.5 61.5q0 38 -31 59t-93 21q-57 0 -88.5 -20.5t-47.5 -72.5l-155 16q16 105 95.5 155.5t202.5 50.5q131 0 205 -51t74 -136q0 -50 -27.5 -91t-89.5 -64q72 -25 105 -68.5t33 -101.5q0 -100 -78 -158t-225 -58q-108 0 -174.5 31.5t-98 85 t-33.5 118.5h159q7 -53 41 -79t104 -26q67 0 102 23.5t35 69.5q0 89 -136 89h-83v124z" />
<glyph unicode="4" d="M572 263h107l-17 -121h-90v-142h-153v142h-395v124l385 425h163v-428zM419 263v262l-237 -262h237z" />
<glyph unicode="5" d="M115 691h486v-132h-353l-12 -140q36 18 72 25t87 7q122 0 189.5 -60t67.5 -167q0 -115 -75.5 -178.5t-215.5 -63.5q-136 0 -211.5 54t-87.5 157h162q11 -43 42.5 -62t92.5 -19q128 0 128 113q0 106 -131 106q-46 0 -75 -9.5t-55 -31.5h-145z" />
<glyph unicode="6" d="M376 710q109 0 174.5 -47.5t84.5 -135.5l-152 -17q-13 33 -39.5 51t-73.5 18q-75 0 -111 -46t-44 -122l-3 -28q32 31 78 46.5t102 15.5q118 0 189.5 -57.5t71.5 -167.5q0 -73 -37.5 -126.5t-104 -82.5t-154.5 -29q-145 0 -224 84t-79 247q0 196 86.5 296.5t235.5 100.5z M360 328q-59 0 -98 -26.5t-39 -75.5q0 -51 37 -83t97 -32q61 0 98.5 29.5t37.5 80.5t-33 79t-100 28z" />
<glyph unicode="7" d="M350 0h-176q52 154 120 289.5t154 262.5h-403v139h588v-122q-94 -135 -162 -273t-121 -296z" />
<glyph unicode="8" d="M60 512q0 92 78 145t214 53t212 -52t76 -144q0 -54 -29 -94.5t-83 -62.5q66 -22 101.5 -65.5t35.5 -102.5q0 -100 -81.5 -153.5t-234.5 -53.5t-233.5 52t-80.5 151q0 60 35 104.5t101 67.5q-111 46 -111 155zM351 110q153 0 153 91t-153 91q-155 0 -155 -91t155 -91z M486 499q0 41 -35 62.5t-101 21.5t-101 -21.5t-35 -62.5q0 -86 136 -86t136 86z" />
<glyph unicode="9" d="M342 -18q-127 0 -199 51t-83 145h159q11 -33 40 -49t84 -16q136 0 143 195q-62 -61 -178 -61q-118 0 -189.5 57.5t-71.5 167.5q0 74 37.5 127t104 82t154.5 29q146 0 224.5 -87t78.5 -261q0 -112 -33 -198t-100.5 -134t-170.5 -48zM437.5 390.5q38.5 26.5 38.5 75.5 q0 50 -36.5 82.5t-96.5 32.5q-61 0 -98.5 -30t-37.5 -80q0 -51 33 -79t100 -28q59 0 97.5 26.5z" />
<glyph unicode=":" horiz-adv-x="303" d="M69 171h165v-171h-165v171zM69 522h165v-171h-165v171z" />
<glyph unicode=";" horiz-adv-x="303" d="M82 171h166l-77 -272h-133zM80 522h165v-171h-165v171z" />
<glyph unicode="&#x3c;" d="M78 275v130l528 214v-142l-346 -135l346 -135v-146z" />
<glyph unicode="=" d="M86 154v134h528v-134h-528zM86 394v134h528v-134h-528z" />
<glyph unicode="&#x3e;" d="M622 405v-130l-528 -214v142l346 135l-346 135v146z" />
<glyph unicode="?" horiz-adv-x="648" d="M239 218v16q0 35 10 62t33.5 53t65.5 57q36 26 54.5 43.5t25 32t6.5 31.5q0 80 -114 80q-62 0 -96 -22.5t-48 -72.5l-155 16q38 212 306 212q131 0 204 -49.5t73 -138.5q0 -55 -27 -97t-93 -89q-37 -26 -57 -45t-28 -36.5t-8 -40.5v-12h-152zM233 152h163v-152h-163v152z " />
<glyph unicode="@" horiz-adv-x="1162" d="M533 -222q-152 0 -261 49t-167 140.5t-58 219.5q0 110 42.5 203t119.5 161.5t182 106t230 37.5q152 0 262.5 -48t171 -135.5t60.5 -206.5q0 -93 -35 -164t-97 -111t-144 -40q-61 0 -95.5 16.5t-48.5 53.5q-8 10 -13 22q-33 -47 -75 -69.5t-101 -22.5q-89 0 -141 53 t-52 148q0 78 34.5 141t92.5 99.5t130 36.5q51 0 86.5 -18t53.5 -51l11 59h140l-56 -295q-2 -10 -3 -18t-1 -13q0 -25 13 -35.5t40 -10.5q42 0 74 27t50 75t18 111q0 138 -97 216.5t-276 78.5q-101 0 -184 -29t-142.5 -82.5t-92 -127.5t-32.5 -164q0 -148 95.5 -230.5 t282.5 -82.5q78 0 135 16t106 53h164q-58 -80 -167 -124.5t-255 -44.5zM460 199q0 -50 22.5 -74t60.5 -24q49 0 82 28t42 79l7 42q8 48 -16.5 77.5t-71.5 29.5q-38 0 -66.5 -22t-44 -57.5t-15.5 -78.5z" />
<glyph unicode="A" horiz-adv-x="870" d="M334 714h202l322 -714h-186l-66 152h-350l-63 -152h-181zM554 286l-122 287l-121 -287h243z" />
<glyph unicode="B" horiz-adv-x="813" d="M86 714h355q296 0 296 -184q0 -109 -115 -152q142 -47 142 -170q0 -102 -78 -155t-228 -53h-372v714zM444 124q79 0 114 22t35 71t-36 72t-113 23h-194v-188h194zM440 429q65 0 96 20t31 63q0 41 -32 59.5t-103 18.5h-182v-161h190z" />
<glyph unicode="C" horiz-adv-x="870" d="M819 484l-174 -20q-23 65 -68 94t-122 29q-103 0 -161.5 -60t-58.5 -170t58.5 -170t164.5 -60q167 0 196 128h177q-15 -130 -113.5 -201.5t-262.5 -71.5q-130 0 -220 47.5t-136.5 132t-46.5 195.5q0 109 47 193.5t137 133t219 48.5q300 0 364 -248z" />
<glyph unicode="D" horiz-adv-x="889" d="M86 714h326q208 0 316 -91t108 -266q0 -171 -113.5 -264t-325.5 -93h-311v714zM402 142q254 0 254 216q0 214 -242 214h-154v-430h142z" />
<glyph unicode="E" horiz-adv-x="758" d="M86 714h606v-134h-432v-149h411v-133h-411v-164h455l-19 -134h-610v714z" />
<glyph unicode="F" horiz-adv-x="694" d="M86 714h578v-137h-402v-167h380v-137h-380v-273h-176v714z" />
<glyph unicode="G" horiz-adv-x="891" d="M833 80q-69 -47 -159 -72.5t-190 -25.5q-136 0 -232.5 44t-148 127.5t-51.5 200.5q0 121 52 205t145 128.5t215 44.5q152 0 239.5 -62.5t115.5 -161.5l-176 -19q-20 53 -64.5 77.5t-118.5 24.5q-112 0 -170 -61.5t-58 -172.5q0 -234 251 -234q111 0 187 33v110h-187v130 h350v-316z" />
<glyph unicode="H" horiz-adv-x="894" d="M86 714h176v-270h370v270h176v-714h-176v293h-370v-293h-176v714z" />
<glyph unicode="I" horiz-adv-x="349" d="M86 714h176v-714h-176v714z" />
<glyph unicode="J" horiz-adv-x="763" d="M508 714h177v-434q0 -147 -83 -222.5t-244 -75.5q-153 0 -237.5 68.5t-95.5 200.5h177q9 -63 47 -93.5t108 -30.5q77 0 114 36t37 111v440z" />
<glyph unicode="K" horiz-adv-x="850" d="M86 714h176v-304l341 304h204l-302 -273l331 -441h-204l-249 333l-121 -103v-230h-176v714z" />
<glyph unicode="L" horiz-adv-x="714" d="M86 714h176v-569h428l-21 -145h-583v714z" />
<glyph unicode="M" horiz-adv-x="1059" d="M86 714h203l243 -525l242 525h198v-714h-164v472l-214 -472h-133l-214 471v-471h-161v714z" />
<glyph unicode="N" horiz-adv-x="896" d="M86 714h159l397 -477v477h168v-714h-159l-397 478v-478h-168v714z" />
<glyph unicode="O" horiz-adv-x="939" d="M52 357q0 116 51 200t145 129.5t223 45.5t222 -45.5t143.5 -129.5t50.5 -200t-51 -200t-145 -129.5t-223 -45.5q-128 0 -221.5 45.5t-144 129.5t-50.5 200zM704 357q0 110 -61.5 170t-172.5 60t-173 -60.5t-62 -169.5t61.5 -169.5t173.5 -60.5q110 0 172 60.5t62 169.5z " />
<glyph unicode="P" horiz-adv-x="785" d="M86 714h349q307 0 307 -238q0 -123 -79 -182t-240 -59h-165v-235h-172v714zM422 370q74 0 110 25.5t36 81.5q0 53 -35 77t-109 24h-166v-208h164z" />
<glyph unicode="Q" horiz-adv-x="939" d="M52 357q0 116 51 200t145 129.5t223 45.5t222 -45.5t143.5 -129.5t50.5 -200q0 -85 -28.5 -153.5t-80.5 -116.5l100 -101l-88 -85l-118 119q-43 -18 -94.5 -28t-109.5 -10q-128 0 -221.5 45.5t-144 129.5t-50.5 200zM474 226l86 81l99 -100q22 27 34.5 65t12.5 85 q0 109 -62 169.5t-174 60.5t-174.5 -60.5t-62.5 -169.5q0 -111 62.5 -171.5t174.5 -60.5q52 0 90 14z" />
<glyph unicode="R" horiz-adv-x="805" d="M86 714h356q305 0 305 -229q0 -75 -33 -122.5t-97 -74.5l176 -288h-192l-149 254h-13h-16h-170v-254h-167v714zM430 386q74 0 110 23.5t36 75.5q0 53 -34 75t-110 22h-179v-196h177z" />
<glyph unicode="S" horiz-adv-x="793" d="M34 224h176q11 -57 58.5 -84.5t135.5 -27.5q83 0 126.5 22.5t43.5 65.5q0 33 -27 52.5t-89 28.5l-127 19q-146 23 -212 75t-66 144q0 101 91.5 157t252.5 56q149 0 230.5 -50t104.5 -155l-168 -19q-19 50 -59 72t-113 22q-79 0 -122 -20t-43 -58q0 -34 25.5 -51t92.5 -27 l150 -24q134 -21 195 -73t61 -145q0 -108 -89 -165t-259 -57q-344 0 -369 242z" />
<glyph unicode="T" horiz-adv-x="752" d="M288 569h-275v145h726v-145h-275v-569h-176v569z" />
<glyph unicode="U" horiz-adv-x="867" d="M254 292q0 -85 43.5 -125t136.5 -40q92 0 135.5 40t43.5 125v422h176v-410q0 -168 -91 -245t-264 -77q-174 0 -265 77t-91 245v410h176v-422z" />
<glyph unicode="V" horiz-adv-x="834" d="M12 714h196l211 -552l213 552h190l-302 -714h-207z" />
<glyph unicode="W" horiz-adv-x="1187" d="M16 714h191l146 -520l160 516h166l160 -517l146 521h186l-236 -714h-189l-154 495l-155 -495h-185z" />
<glyph unicode="X" horiz-adv-x="847" d="M835 0h-210l-208 265l-207 -265h-198l296 371l-274 343h210l176 -233l184 233h197l-271 -336z" />
<glyph unicode="Y" horiz-adv-x="801" d="M488 281v-281h-176v282l-300 432h195l196 -297l197 297h189z" />
<glyph unicode="Z" horiz-adv-x="740" d="M474 575h-432v139h653v-126l-441 -449h461l-19 -139h-663v126z" />
<glyph unicode="[" horiz-adv-x="417" d="M86 734h310v-131h-141v-596h141v-131h-310v858z" />
<glyph unicode="\" horiz-adv-x="459" d="M7 734h161l284 -734h-161z" />
<glyph unicode="]" horiz-adv-x="417" d="M330 -124h-309v131h141v596h-141v131h309v-858z" />
<glyph unicode="^" d="M277 714h145l240 -421h-167l-147 273l-147 -273h-164z" />
<glyph unicode="_" horiz-adv-x="610" d="M0 -123h610v-52h-610v52z" />
<glyph unicode="`" horiz-adv-x="729" d="M197 747h187l148 -160h-151z" />
<glyph unicode="a" horiz-adv-x="689" d="M620 0h-152v69q-44 -44 -95.5 -63.5t-118.5 -19.5q-103 0 -158.5 41.5t-55.5 118.5q0 85 73 127.5t227 46.5l123 3v20q0 88 -115 88q-106 0 -127 -58l-149 12q31 153 282 153q266 0 266 -208v-330zM379 107.5q37 13.5 60.5 38.5t23.5 61v25l-113 -3q-79 -2 -115.5 -19 t-36.5 -52q0 -64 102 -64q42 0 79 13.5z" />
<glyph unicode="b" horiz-adv-x="750" d="M73 714h166v-265q35 43 88.5 66t119.5 23q77 0 134 -34t89 -94.5t32 -142.5t-33 -146t-94 -100.5t-144 -36.5q-127 0 -195 84v-68h-163v714zM389 413q-66 0 -108.5 -39t-42.5 -98v-25q0 -63 39.5 -102.5t106.5 -39.5q74 0 111.5 39.5t37.5 114.5q0 72 -37.5 111 t-106.5 39z" />
<glyph unicode="c" horiz-adv-x="681" d="M47 258q0 87 38 150t108 96.5t166 33.5q84 0 141 -25t90 -67.5t44 -97.5l-157 -18q-21 84 -117 84q-69 0 -106 -39.5t-37 -113.5t37 -113t107 -39q109 0 124 86h158q-14 -96 -85 -153.5t-201 -57.5q-151 0 -230.5 73.5t-79.5 200.5z" />
<glyph unicode="d" horiz-adv-x="750" d="M677 0h-163v77q-36 -46 -90 -69.5t-121 -23.5q-77 0 -134.5 34t-89.5 95t-32 142q0 83 33 146.5t94 100t145 36.5q125 0 192 -82v258h166v-714zM361 109q44 0 78 18t53.5 49.5t19.5 70.5v25q0 63 -39.5 102t-107.5 39q-73 0 -110.5 -39.5t-37.5 -114.5q0 -72 37 -111 t107 -39z" />
<glyph unicode="e" horiz-adv-x="699" d="M351 -16q-144 0 -224 71.5t-80 199.5q0 86 38.5 149.5t108 98.5t161.5 35q142 0 219 -70.5t77 -198.5v-45h-444q7 -66 45 -97.5t104 -31.5q110 0 134 64h155q-42 -175 -294 -175zM211 314h284q-4 60 -37 87.5t-104 27.5q-73 0 -104 -33t-39 -82z" />
<glyph unicode="f" horiz-adv-x="476" d="M123 387h-101v121h101v27q0 88 58.5 137.5t163.5 49.5q37 0 70 -4t67 -14l-24 -110q-19 5 -37 6.5t-40 1.5q-92 0 -92 -69v-25h163v-121h-163v-387h-166v387z" />
<glyph unicode="g" horiz-adv-x="740" d="M677 83q0 -150 -74.5 -219t-232.5 -69q-139 0 -212 43.5t-86 132.5h161q11 -34 42.5 -49t93.5 -15q73 0 107.5 34.5t34.5 108.5v53q-71 -84 -208 -84q-76 0 -133.5 32t-90 90t-32.5 134t33.5 135.5t95 93.5t143.5 34q65 0 113 -20.5t83 -62.5v67h162v-439zM469 175 q43 35 43 94v15q0 61 -41 96t-106 35q-71 0 -109.5 -36t-38.5 -101t38 -101.5t106 -36.5q65 0 108 35z" />
<glyph unicode="h" horiz-adv-x="729" d="M73 714h166v-270q43 47 94 70.5t115 23.5q102 0 157 -51.5t55 -147.5v-339h-166v308q0 53 -25.5 77.5t-81.5 24.5q-30 0 -59 -11t-50 -31q-39 -36 -39 -85v-283h-166v714z" />
<glyph unicode="i" horiz-adv-x="312" d="M73 522h166v-522h-166v522zM72 721h169v-120h-169v120z" />
<glyph unicode="j" horiz-adv-x="312" d="M73 522h166v-534q0 -101 -44.5 -147t-142.5 -46q-71 0 -136 19l24 111q22 -4 39 -6t31 -2q35 0 49 14.5t14 51.5v539zM72 721h169v-120h-169v120z" />
<glyph unicode="k" horiz-adv-x="702" d="M73 714h166v-369l231 177h206l-225 -171l248 -351h-184l-180 265l-96 -72v-193h-166v714z" />
<glyph unicode="l" horiz-adv-x="312" d="M73 714h166v-714h-166v714z" />
<glyph unicode="m" horiz-adv-x="1081" d="M73 522h163v-80q38 46 86 71t108 25q133 0 176 -100q81 100 210 100q94 0 145 -51.5t51 -147.5v-339h-167v311q0 52 -21 75.5t-69 23.5q-53 0 -95 -39q-35 -32 -35 -76v-295h-166v311q0 52 -21.5 75.5t-68.5 23.5q-55 0 -95 -42q-35 -33 -35 -82v-286h-166v522z" />
<glyph unicode="n" horiz-adv-x="729" d="M73 522h163v-80q43 48 95 72t117 24q102 0 157 -51.5t55 -147.5v-339h-166v308q0 53 -25.5 77.5t-81.5 24.5q-30 0 -59 -11t-50 -31q-39 -36 -39 -85v-283h-166v522z" />
<glyph unicode="o" horiz-adv-x="729" d="M47 259q0 87 39 149.5t111.5 96t170.5 33.5q149 0 231.5 -72t82.5 -203q0 -86 -39 -148.5t-111 -96.5t-171 -34q-148 0 -231 72.5t-83 202.5zM513 261q0 74 -38.5 113.5t-109.5 39.5t-109.5 -39.5t-38.5 -113.5q0 -73 38 -112.5t109 -39.5q72 0 110.5 39.5t38.5 112.5z " />
<glyph unicode="p" horiz-adv-x="750" d="M73 522h163v-77q36 46 90 69.5t121 23.5q77 0 134 -34t89 -94.5t32 -142.5t-33 -146t-94 -100.5t-144 -36.5q-126 0 -192 83v-261h-166v716zM495.5 148.5q37.5 39.5 37.5 114.5q0 72 -37.5 111t-106.5 39q-66 0 -108.5 -39t-42.5 -98v-25q0 -63 39.5 -102.5t106.5 -39.5 q74 0 111.5 39.5z" />
<glyph unicode="q" horiz-adv-x="750" d="M677 -194h-166v269q-35 -45 -88.5 -68t-119.5 -23q-77 0 -134.5 34t-89.5 95t-32 142q0 83 33 146.5t94 100t145 36.5q129 0 196 -87v71h162v-716zM512 272q0 63 -39.5 102t-107.5 39q-73 0 -110.5 -39.5t-37.5 -114.5q0 -72 37 -111t107 -39q67 0 109 38.5t42 99.5v25z " />
<glyph unicode="r" horiz-adv-x="502" d="M73 522h163v-82q75 91 187 91q14 0 29 -1.5t31 -3.5l-19 -132q-35 5 -61 5q-76 0 -121 -38q-43 -37 -43 -87v-274h-166v522z" />
<glyph unicode="s" horiz-adv-x="651" d="M336 -16q-80 0 -144.5 16.5t-105 55t-48.5 104.5h156q11 -37 46.5 -53t93.5 -16q59 0 90 14.5t31 42.5q0 23 -23 35t-85 21l-64 10q-124 19 -177 56.5t-53 108.5q0 75 71.5 117t198.5 42q132 0 196 -39t83 -113l-153 -15q-20 63 -126 63q-55 0 -85 -14.5t-30 -39.5 q0 -22 22 -34t81 -21l69 -10q89 -13 139.5 -32.5t72 -50.5t21.5 -79q0 -169 -277 -169z" />
<glyph unicode="t" horiz-adv-x="494" d="M123 401h-101v121h101v139h166v-139h167v-121h-167v-213q0 -39 19 -56t59 -17q39 0 84 14l22 -116q-37 -12 -72.5 -17.5t-79.5 -5.5q-105 0 -151.5 45.5t-46.5 145.5v220z" />
<glyph unicode="u" horiz-adv-x="720" d="M648 0h-163v81q-41 -46 -92 -71.5t-118 -25.5q-97 0 -151.5 51.5t-54.5 145.5v341h166v-310q0 -100 101 -100q59 0 106 42q39 34 39 83v285h167v-522z" />
<glyph unicode="v" horiz-adv-x="663" d="M8 522h178l147 -379l150 379h172l-235 -522h-177z" />
<glyph unicode="w" horiz-adv-x="953" d="M10 522h168l110 -355l122 351h139l124 -348l109 352h161l-184 -522h-160l-121 339l-122 -339h-162z" />
<glyph unicode="x" horiz-adv-x="671" d="M663 0h-190l-140 170l-140 -170h-185l233 269l-214 253h189l121 -150l119 150h184l-211 -244z" />
<glyph unicode="y" horiz-adv-x="668" d="M393 -28q-33 -68 -63.5 -107t-67.5 -54.5t-90 -15.5q-35 0 -64 5t-62 17l24 113q19 -6 36.5 -8.5t36.5 -2.5q36 0 59 16t42 55l21 43l-257 489h181l155 -342l142 342h174z" />
<glyph unicode="z" horiz-adv-x="611" d="M240 120h343l-16 -120h-538v102l323 300h-316v120h527v-101z" />
<glyph unicode="{" horiz-adv-x="423" d="M112 39v130q0 72 -79 72h-11v128h9q81 0 81 72v130q0 163 190 163h106v-131h-71q-62 0 -62 -62v-127q0 -90 -90 -109q90 -19 90 -109v-127q0 -62 62 -62h71v-131h-106q-190 0 -190 163z" />
<glyph unicode="|" horiz-adv-x="322" d="M86 734h149v-858h-149v858z" />
<glyph unicode="}" horiz-adv-x="423" d="M311 571v-130q0 -72 79 -72h11v-128h-8q-82 0 -82 -72v-130q0 -163 -190 -163h-106v131h71q63 0 63 62v127q0 90 90 109q-90 19 -90 109v127q0 62 -63 62h-71v131h106q190 0 190 -163z" />
<glyph unicode="~" d="M217 459q41 0 77.5 -12t79.5 -41q33 -22 54 -31t43 -9q65 0 65 82h140q0 -228 -193 -228q-41 0 -77.5 12.5t-79.5 40.5q-33 22 -54 31t-43 9q-65 0 -65 -82h-140q0 228 193 228z" />
<glyph unicode="&#xa1;" horiz-adv-x="322" d="M71 -192l14 496h152l14 -496h-180zM79 370v152h164v-152h-164z" />
<glyph unicode="&#xa2;" d="M400 200q91 10 105 91h153q-30 -194 -258 -210v-97h-71v97q-130 7 -206 77t-76 196q0 125 76.5 197.5t205.5 81.5v92h71v-92q214 -14 249 -189l-152 -18q-9 38 -32 59.5t-65 27.5v-313zM210 356q0 -74 31 -110.5t88 -44.5v311q-55 -8 -87 -45.5t-32 -110.5z" />
<glyph unicode="&#xa3;" d="M658 0h-586v111q41 31 58 63t17 78q0 13 -1 30h-100v120h78q-7 28 -9.5 48.5t-2.5 38.5q0 103 75 162t205 59q119 0 187.5 -49t81.5 -143l-151 -18q-13 45 -39 63t-79 18q-58 0 -90 -26.5t-32 -74.5q0 -20 3.5 -40t8.5 -38h257v-120h-239q1 -14 1 -26q0 -34 -12 -64 t-43 -58h431z" />
<glyph unicode="&#xa4;" d="M350 82q-64 0 -118 26l-63 -71l-100 89l65 71q-39 62 -39 140q0 79 39 141l-65 71l100 89l64 -71q53 26 117 26t118 -26l63 71l100 -89l-65 -71q39 -62 39 -141q0 -78 -39 -140l65 -71l-100 -89l-63 71q-54 -26 -118 -26zM442.5 445.5q-31.5 37.5 -92.5 37.5t-92.5 -37.5 t-31.5 -108.5q0 -70 31.5 -108t92.5 -38t92.5 38t31.5 108q0 71 -31.5 108.5z" />
<glyph unicode="&#xa5;" d="M10 691h175l167 -279l169 279h169l-205 -317h155v-83h-209v-72h209v-83h-209v-136h-162v136h-209v83h209v72h-209v83h155z" />
<glyph unicode="&#xa6;" horiz-adv-x="322" d="M86 -124v353h149v-353h-149zM86 398v336h149v-336h-149z" />
<glyph unicode="&#xa7;" horiz-adv-x="660" d="M343 -121q-288 0 -313 189h160q9 -44 44.5 -64t104.5 -20q127 0 127 67q0 26 -22 41.5t-77 25.5l-111 22q-115 23 -164.5 60.5t-49.5 104.5q0 98 105 130q-53 20 -77 51.5t-24 76.5q0 81 74 125t210 44q250 0 290 -161l-154 -16q-14 38 -46 55t-91 17q-129 0 -129 -62 q0 -25 23.5 -40.5t75.5 -25.5l101 -19q120 -22 171 -60t51 -106q0 -96 -106 -133q107 -39 107 -131q0 -83 -71 -127t-209 -44zM379 372l-57 11q-13 3 -24 4t-22 1q-43 0 -68 -18.5t-25 -51.5q0 -28 23.5 -44.5t78.5 -27.5l56 -12q14 -2 25 -3.5t22 -1.5q44 0 68 18.5 t24 52.5q0 27 -22.5 44t-78.5 28z" />
<glyph unicode="&#xa8;" horiz-adv-x="729" d="M162 721h151v-120h-151v120zM415 721h151v-120h-151v120z" />
<glyph unicode="&#xa9;" horiz-adv-x="914" d="M49 357q0 108 50.5 188.5t142.5 124.5t215 44q124 0 215.5 -44t142 -124.5t50.5 -188.5t-50.5 -188.5t-142 -124.5t-215.5 -44q-123 0 -215 44t-142.5 124.5t-50.5 188.5zM771 357q0 85 -38 146.5t-108.5 95t-167.5 33.5t-167 -33.5t-108 -95t-38 -146.5q0 -84 38 -146 t108 -95.5t167 -33.5t167.5 33.5t108.5 95.5t38 146zM241 355q0 93 61 147.5t164 54.5q83 0 135 -35t68 -102l-121 -14q-8 30 -27.5 43t-54.5 13q-47 0 -73 -27t-26 -77q0 -105 100 -105q73 0 86 58h122q-13 -74 -66.5 -113.5t-142.5 -39.5q-106 0 -165.5 53t-59.5 144z" />
<glyph unicode="&#xaa;" horiz-adv-x="532" d="M470 338h-115v52q-50 -62 -155 -62q-79 0 -121.5 30.5t-42.5 85.5q0 62 53.5 93t160.5 34l99 2v15q0 61 -84 61q-40 0 -61 -9t-30 -32l-114 10q14 59 64.5 86.5t144.5 27.5q201 0 201 -152v-242zM349 487v18l-91 -2q-54 -1 -77 -12.5t-23 -36.5q0 -44 74 -44q54 0 85 20 q32 22 32 57z" />
<glyph unicode="&#xab;" horiz-adv-x="694" d="M368 30h-172l-160 226l160 227h170l-145 -225zM653 30h-172l-160 226l160 227h170l-145 -225z" />
<glyph unicode="&#xac;" d="M615 150h-150v158h-402v137h552v-295z" />
<glyph unicode="&#xad;" horiz-adv-x="487" d="M45 370h397v-145h-397v145z" />
<glyph unicode="&#xae;" horiz-adv-x="589" d="M158.5 318q-57.5 27 -89 77t-31.5 117t31.5 116.5t89 76.5t135.5 27q79 0 136.5 -27t89 -76.5t31.5 -116.5t-31.5 -117t-89 -77t-136.5 -27q-78 0 -135.5 27zM100 512q0 -77 51.5 -121t142.5 -44q92 0 143 44t51 121t-51 120.5t-143 43.5q-91 0 -142.5 -43.5 t-51.5 -120.5zM380 601.5q24 -17.5 24 -52.5q0 -41 -39 -58l53 -83h-67l-42 68h-53v-68h-63v211h111q52 0 76 -17.5zM299 570h-43v-44h46q23 0 31.5 6t8.5 16q0 11 -9.5 16.5t-33.5 5.5z" />
<glyph unicode="&#xaf;" horiz-adv-x="729" d="M185 717h358v-105h-358v105z" />
<glyph unicode="&#xb0;" horiz-adv-x="416" d="M208 365q-52 0 -92 22.5t-63 61.5t-23 90q0 52 23 91t63 61.5t92 22.5t92 -22.5t63 -61.5t23 -91q0 -51 -23 -90t-63 -61.5t-92 -22.5zM259.5 593q-19.5 21 -51.5 21t-51.5 -21t-19.5 -54q0 -32 19.5 -53t51.5 -21t51.5 21t19.5 53q0 33 -19.5 54z" />
<glyph unicode="&#xb1;" d="M275 180v158h-204v124h204v157h150v-157h204v-124h-204v-158h-150zM86 0v125h528v-125h-528z" />
<glyph unicode="&#xb2;" horiz-adv-x="492" d="M255 825q83 0 131 -34t48 -93q0 -26 -12 -48.5t-42.5 -48.5t-85.5 -62q-11 -7 -27 -17.5t-38 -23.5h213l-12 -92h-371v84q33 20 66.5 41.5t67.5 43.5q52 35 76.5 53.5t32.5 31t8 26.5q0 48 -62 48q-34 0 -53 -13.5t-27 -42.5l-115 11q32 136 202 136z" />
<glyph unicode="&#xb3;" horiz-adv-x="492" d="M251 825q86 0 134.5 -30.5t48.5 -85.5q0 -58 -70 -87q81 -27 81 -99q0 -61 -51 -95.5t-143 -34.5q-94 0 -146.5 38.5t-54.5 108.5h113q5 -32 25.5 -46.5t58.5 -14.5q77 0 77 49q0 45 -70 45h-51v82h50q29 0 45.5 11.5t16.5 32.5q0 41 -69 41q-34 0 -52.5 -11.5 t-26.5 -37.5l-112 11q32 123 196 123z" />
<glyph unicode="&#xb4;" horiz-adv-x="729" d="M346 747h187l-184 -160h-151z" />
<glyph unicode="&#xb5;" horiz-adv-x="724" d="M73 522h166v-310q0 -99 101 -99q30 0 57 11t49 30q39 34 39 83v285h167v-522h-163v86q-68 -94 -170 -94q-51 0 -80 19v-205h-166v716z" />
<glyph unicode="&#xb6;" horiz-adv-x="807" d="M721 -139h-151v728h-118v-728h-151v387q-279 15 -279 229q0 124 84.5 180.5t267.5 56.5h347v-853z" />
<glyph unicode="&#xb7;" horiz-adv-x="303" d="M69 460h165v-171h-165v171z" />
<glyph unicode="&#xb8;" horiz-adv-x="729" d="M315 18l80 -18l-19 -45q60 -6 88 -27.5t28 -57.5q0 -42 -39 -65t-113 -23q-34 0 -61.5 3t-44.5 9v73q45 -9 80 -9q61 0 61 23q0 14 -17 19.5t-60 5.5h-32z" />
<glyph unicode="&#xb9;" horiz-adv-x="492" d="M363 406h-126v283l-112 -68l-50 83l176 108h112v-406z" />
<glyph unicode="&#xba;" horiz-adv-x="561" d="M283 732q113 0 174.5 -53.5t61.5 -148.5q0 -96 -64.5 -151.5t-176.5 -55.5t-173.5 53t-61.5 149t64 151.5t176 55.5zM281 632q-52 0 -79.5 -27t-27.5 -78q0 -50 27.5 -77t78.5 -27q52 0 80 27t28 78q0 50 -28 77t-79 27z" />
<glyph unicode="&#xbb;" horiz-adv-x="694" d="M40 483h172l160 -226l-160 -227h-170l146 225zM325 483h172l160 -226l-160 -227h-170l146 225z" />
<glyph unicode="&#xbc;" horiz-adv-x="1155" d="M718 691h152l-407 -691h-151zM933 406h123v-243h70l-11 -85h-59v-78h-110v78h-244v82zM946 307l-136 -144h136v144zM363 285h-126v283l-112 -68l-50 83l176 108h112v-406z" />
<glyph unicode="&#xbd;" horiz-adv-x="1155" d="M695 691h152l-407 -691h-151zM918 419q83 0 131 -34t48 -93q0 -26 -12 -48.5t-42.5 -48.5t-85.5 -62q-11 -7 -27 -17.5t-38 -23.5h213l-12 -92h-371v84q33 20 66.5 41.5t67.5 43.5q52 35 76.5 53.5t32.5 31t8 26.5q0 48 -62 48q-34 0 -53 -13.5t-27 -42.5l-115 11 q32 136 202 136zM363 285h-126v283l-112 -68l-50 83l176 108h112v-406z" />
<glyph unicode="&#xbe;" horiz-adv-x="1155" d="M733 691h152l-407 -691h-151zM933 406h123v-243h70l-11 -85h-59v-78h-110v78h-244v82zM946 307l-136 -144h136v144zM251 704q86 0 134.5 -30.5t48.5 -85.5q0 -58 -70 -87q81 -27 81 -99q0 -61 -51 -95.5t-143 -34.5q-94 0 -146.5 38.5t-54.5 108.5h113q5 -32 25.5 -46.5 t58.5 -14.5q77 0 77 49q0 45 -70 45h-51v82h50q29 0 45.5 11.5t16.5 32.5q0 41 -69 41q-34 0 -52.5 -11.5t-26.5 -37.5l-112 11q32 123 196 123z" />
<glyph unicode="&#xbf;" horiz-adv-x="648" d="M321 -204q-130 0 -203.5 50t-73.5 139q0 56 27.5 97.5t93.5 88.5q37 27 57 45.5t27.5 36t7.5 39.5v12h153v-16q0 -34 -10 -61.5t-33.5 -53t-65.5 -56.5q-36 -26 -55 -43.5t-25.5 -32t-6.5 -32.5q0 -79 115 -79q62 0 96.5 22.5t47.5 71.5l154 -16q-18 -104 -95 -158 t-211 -54zM416 522v-152h-164v152h164z" />
<glyph unicode="&#xc0;" horiz-adv-x="870" d="M334 714h202l322 -714h-186l-66 152h-350l-63 -152h-181zM554 286l-122 287l-121 -287h243zM195 923h198l150 -150h-163z" />
<glyph unicode="&#xc1;" horiz-adv-x="870" d="M334 714h202l322 -714h-186l-66 152h-350l-63 -152h-181zM554 286l-122 287l-121 -287h243zM473 923h198l-185 -150h-163z" />
<glyph unicode="&#xc2;" horiz-adv-x="870" d="M334 714h202l322 -714h-186l-66 152h-350l-63 -152h-181zM554 286l-122 287l-121 -287h243zM353 923h160l145 -150h-145l-80 77l-81 -77h-144z" />
<glyph unicode="&#xc3;" horiz-adv-x="870" d="M334 714h202l322 -714h-186l-66 152h-350l-63 -152h-181zM554 286l-122 287l-121 -287h243zM250.5 892.5q30.5 36.5 92.5 36.5q24 0 50.5 -8.5t60.5 -28.5q26 -13 39.5 -19t25.5 -6q19 0 25.5 14t6.5 45h102q0 -80 -30.5 -117.5t-92.5 -37.5q-24 0 -49 8.5t-60 27.5 q-25 14 -40 20t-26 6q-19 0 -26 -14.5t-7 -44.5h-102q0 82 30.5 118.5z" />
<glyph unicode="&#xc4;" horiz-adv-x="870" d="M334 714h202l322 -714h-186l-66 152h-350l-63 -152h-181zM554 286l-122 287l-121 -287h243zM222 912h158v-132h-158v132zM486 912h158v-132h-158v132z" />
<glyph unicode="&#xc5;" horiz-adv-x="870" d="M334 714h202l322 -714h-186l-66 152h-350l-63 -152h-181zM554 286l-122 287l-121 -287h243zM433 736q-66 0 -106 33.5t-40 87.5q0 55 40 88t106 33t106 -33t40 -88q0 -54 -40 -87.5t-106 -33.5zM433 904q-57 0 -57 -47q0 -46 57 -46t57 46q0 47 -57 47z" />
<glyph unicode="&#xc6;" horiz-adv-x="1306" d="M517 714h723v-134h-404v-149h382v-133h-382v-164h427l-19 -134h-576v202h-323l-140 -202h-193zM668 335v245h-65l-169 -245h234z" />
<glyph unicode="&#xc7;" horiz-adv-x="870" d="M819 484l-174 -20q-23 65 -68 94t-122 29q-103 0 -161.5 -60t-58.5 -170t58.5 -170t164.5 -60q167 0 196 128h177q-15 -130 -113.5 -201.5t-262.5 -71.5q-130 0 -220 47.5t-136.5 132t-46.5 195.5q0 109 47 193.5t137 133t219 48.5q300 0 364 -248zM409 19l83 -19 l-19 -46q119 -13 119 -90q0 -43 -41 -66.5t-117 -23.5q-71 0 -109 12v73q51 -9 83 -9q64 0 64 26q0 14 -18.5 20.5t-63.5 6.5h-31z" />
<glyph unicode="&#xc8;" horiz-adv-x="758" d="M86 714h606v-134h-432v-149h411v-133h-411v-164h455l-19 -134h-610v714zM151 923h198l150 -150h-163z" />
<glyph unicode="&#xc9;" horiz-adv-x="758" d="M86 714h606v-134h-432v-149h411v-133h-411v-164h455l-19 -134h-610v714zM429 923h198l-185 -150h-163z" />
<glyph unicode="&#xca;" horiz-adv-x="758" d="M86 714h606v-134h-432v-149h411v-133h-411v-164h455l-19 -134h-610v714zM309 923h160l145 -150h-145l-80 77l-81 -77h-144z" />
<glyph unicode="&#xcb;" horiz-adv-x="758" d="M86 714h606v-134h-432v-149h411v-133h-411v-164h455l-19 -134h-610v714zM178 912h158v-132h-158v132zM442 912h158v-132h-158v132z" />
<glyph unicode="&#xcc;" horiz-adv-x="349" d="M86 714h176v-714h-176v714zM-63 923h198l150 -150h-163z" />
<glyph unicode="&#xcd;" horiz-adv-x="349" d="M86 714h176v-714h-176v714zM215 923h198l-185 -150h-163z" />
<glyph unicode="&#xce;" horiz-adv-x="349" d="M86 714h176v-714h-176v714zM95 923h160l145 -150h-145l-80 77l-81 -77h-144z" />
<glyph unicode="&#xcf;" horiz-adv-x="349" d="M86 714h176v-714h-176v714zM-36 912h158v-132h-158v132zM228 912h158v-132h-158v132z" />
<glyph unicode="&#xd0;" horiz-adv-x="923" d="M121 0v298h-101v131h101v285h325q209 0 317 -91t108 -266q0 -171 -113.5 -264t-325.5 -93h-311zM477 298h-186v-158h146q254 0 254 218q0 216 -242 216h-158v-145h186v-131z" />
<glyph unicode="&#xd1;" horiz-adv-x="896" d="M86 714h159l397 -477v477h168v-714h-159l-397 478v-478h-168v714zM261.5 892.5q30.5 36.5 92.5 36.5q24 0 50.5 -8.5t60.5 -28.5q26 -13 39.5 -19t25.5 -6q19 0 25.5 14t6.5 45h102q0 -80 -30.5 -117.5t-92.5 -37.5q-24 0 -49 8.5t-60 27.5q-25 14 -40 20t-26 6 q-19 0 -26 -14.5t-7 -44.5h-102q0 82 30.5 118.5z" />
<glyph unicode="&#xd2;" horiz-adv-x="939" d="M52 357q0 116 51 200t145 129.5t223 45.5t222 -45.5t143.5 -129.5t50.5 -200t-51 -200t-145 -129.5t-223 -45.5q-128 0 -221.5 45.5t-144 129.5t-50.5 200zM704 357q0 110 -61.5 170t-172.5 60t-173 -60.5t-62 -169.5t61.5 -169.5t173.5 -60.5q110 0 172 60.5t62 169.5z M232 923h198l150 -150h-163z" />
<glyph unicode="&#xd3;" horiz-adv-x="939" d="M52 357q0 116 51 200t145 129.5t223 45.5t222 -45.5t143.5 -129.5t50.5 -200t-51 -200t-145 -129.5t-223 -45.5q-128 0 -221.5 45.5t-144 129.5t-50.5 200zM704 357q0 110 -61.5 170t-172.5 60t-173 -60.5t-62 -169.5t61.5 -169.5t173.5 -60.5q110 0 172 60.5t62 169.5z M510 923h198l-185 -150h-163z" />
<glyph unicode="&#xd4;" horiz-adv-x="939" d="M52 357q0 116 51 200t145 129.5t223 45.5t222 -45.5t143.5 -129.5t50.5 -200t-51 -200t-145 -129.5t-223 -45.5q-128 0 -221.5 45.5t-144 129.5t-50.5 200zM704 357q0 110 -61.5 170t-172.5 60t-173 -60.5t-62 -169.5t61.5 -169.5t173.5 -60.5q110 0 172 60.5t62 169.5z M390 923h160l145 -150h-145l-80 77l-81 -77h-144z" />
<glyph unicode="&#xd5;" horiz-adv-x="939" d="M52 357q0 116 51 200t145 129.5t223 45.5t222 -45.5t143.5 -129.5t50.5 -200t-51 -200t-145 -129.5t-223 -45.5q-128 0 -221.5 45.5t-144 129.5t-50.5 200zM704 357q0 110 -61.5 170t-172.5 60t-173 -60.5t-62 -169.5t61.5 -169.5t173.5 -60.5q110 0 172 60.5t62 169.5z M287.5 892.5q30.5 36.5 92.5 36.5q24 0 50.5 -8.5t60.5 -28.5q26 -13 39.5 -19t25.5 -6q19 0 25.5 14t6.5 45h102q0 -80 -30.5 -117.5t-92.5 -37.5q-24 0 -49 8.5t-60 27.5q-25 14 -40 20t-26 6q-19 0 -26 -14.5t-7 -44.5h-102q0 82 30.5 118.5z" />
<glyph unicode="&#xd6;" horiz-adv-x="939" d="M52 357q0 116 51 200t145 129.5t223 45.5t222 -45.5t143.5 -129.5t50.5 -200t-51 -200t-145 -129.5t-223 -45.5q-128 0 -221.5 45.5t-144 129.5t-50.5 200zM704 357q0 110 -61.5 170t-172.5 60t-173 -60.5t-62 -169.5t61.5 -169.5t173.5 -60.5q110 0 172 60.5t62 169.5z M259 912h158v-132h-158v132zM523 912h158v-132h-158v132z" />
<glyph unicode="&#xd7;" d="M251 342l-157 156l98 97l158 -156l158 156l98 -97l-157 -156l157 -156l-98 -97l-158 156l-158 -156l-98 97z" />
<glyph unicode="&#xd8;" horiz-adv-x="939" d="M84.5 193q-32.5 72 -32.5 164q0 116 51 200t145 129.5t223 45.5q118 0 208 -39l67 82l78 -57l-61 -76q60 -48 92 -120.5t32 -164.5q0 -116 -51 -200t-145 -129.5t-223 -45.5q-118 0 -208 39l-67 -82l-78 57l61 76q-59 49 -91.5 121zM358 143q49 -19 112 -19 q113 0 176 60.5t63 172.5q0 99 -49 158zM230 357q0 -98 50 -158l301 372q-48 19 -111 19q-113 0 -176.5 -60.5t-63.5 -172.5z" />
<glyph unicode="&#xd9;" horiz-adv-x="867" d="M254 292q0 -85 43.5 -125t136.5 -40q92 0 135.5 40t43.5 125v422h176v-410q0 -168 -91 -245t-264 -77q-174 0 -265 77t-91 245v410h176v-422zM196 923h198l150 -150h-163z" />
<glyph unicode="&#xda;" horiz-adv-x="867" d="M254 292q0 -85 43.5 -125t136.5 -40q92 0 135.5 40t43.5 125v422h176v-410q0 -168 -91 -245t-264 -77q-174 0 -265 77t-91 245v410h176v-422zM474 923h198l-185 -150h-163z" />
<glyph unicode="&#xdb;" horiz-adv-x="867" d="M254 292q0 -85 43.5 -125t136.5 -40q92 0 135.5 40t43.5 125v422h176v-410q0 -168 -91 -245t-264 -77q-174 0 -265 77t-91 245v410h176v-422zM354 923h160l145 -150h-145l-80 77l-81 -77h-144z" />
<glyph unicode="&#xdc;" horiz-adv-x="867" d="M254 292q0 -85 43.5 -125t136.5 -40q92 0 135.5 40t43.5 125v422h176v-410q0 -168 -91 -245t-264 -77q-174 0 -265 77t-91 245v410h176v-422zM223 912h158v-132h-158v132zM487 912h158v-132h-158v132z" />
<glyph unicode="&#xdd;" horiz-adv-x="801" d="M488 281v-281h-176v282l-300 432h195l196 -297l197 297h189zM443 923h198l-185 -150h-163z" />
<glyph unicode="&#xde;" horiz-adv-x="785" d="M86 714h172v-113h177q307 0 307 -238q0 -123 -79 -182t-240 -59h-165v-122h-172v714zM422 258q74 0 110 25t36 81q0 53 -35 77.5t-109 24.5h-166v-208h164z" />
<glyph unicode="&#xdf;" horiz-adv-x="752" d="M235 0h-164v484q0 113 76 175.5t215 62.5q134 0 208.5 -47.5t74.5 -133.5q0 -52 -26.5 -87.5t-83.5 -57.5q80 -18 125 -69.5t45 -122.5q0 -104 -72.5 -162t-201.5 -58q-36 0 -70 4.5t-65 11.5l20 119q19 -4 41.5 -7t44.5 -3q73 0 105.5 24t32.5 77q0 102 -170 102h-55 v120h43q125 0 125 89q0 38 -31.5 58.5t-90.5 20.5q-126 0 -126 -101v-499z" />
<glyph unicode="&#xe0;" horiz-adv-x="689" d="M620 0h-152v69q-44 -44 -95.5 -63.5t-118.5 -19.5q-103 0 -158.5 41.5t-55.5 118.5q0 85 73 127.5t227 46.5l123 3v20q0 88 -115 88q-106 0 -127 -58l-149 12q31 153 282 153q266 0 266 -208v-330zM379 107.5q37 13.5 60.5 38.5t23.5 61v25l-113 -3q-79 -2 -115.5 -19 t-36.5 -52q0 -64 102 -64q42 0 79 13.5zM129 747h187l148 -160h-151z" />
<glyph unicode="&#xe1;" horiz-adv-x="689" d="M620 0h-152v69q-44 -44 -95.5 -63.5t-118.5 -19.5q-103 0 -158.5 41.5t-55.5 118.5q0 85 73 127.5t227 46.5l123 3v20q0 88 -115 88q-106 0 -127 -58l-149 12q31 153 282 153q266 0 266 -208v-330zM379 107.5q37 13.5 60.5 38.5t23.5 61v25l-113 -3q-79 -2 -115.5 -19 t-36.5 -52q0 -64 102 -64q42 0 79 13.5zM396 747h187l-184 -160h-151z" />
<glyph unicode="&#xe2;" horiz-adv-x="689" d="M620 0h-152v69q-44 -44 -95.5 -63.5t-118.5 -19.5q-103 0 -158.5 41.5t-55.5 118.5q0 85 73 127.5t227 46.5l123 3v20q0 88 -115 88q-106 0 -127 -58l-149 12q31 153 282 153q266 0 266 -208v-330zM379 107.5q37 13.5 60.5 38.5t23.5 61v25l-113 -3q-79 -2 -115.5 -19 t-36.5 -52q0 -64 102 -64q42 0 79 13.5zM279 747h154l148 -160h-140l-85 86l-86 -86h-139z" />
<glyph unicode="&#xe3;" horiz-adv-x="689" d="M620 0h-152v69q-44 -44 -95.5 -63.5t-118.5 -19.5q-103 0 -158.5 41.5t-55.5 118.5q0 85 73 127.5t227 46.5l123 3v20q0 88 -115 88q-106 0 -127 -58l-149 12q31 153 282 153q266 0 266 -208v-330zM379 107.5q37 13.5 60.5 38.5t23.5 61v25l-113 -3q-79 -2 -115.5 -19 t-36.5 -52q0 -64 102 -64q42 0 79 13.5zM173 710.5q30 37.5 91 37.5q28 0 53.5 -8.5t57.5 -30.5q21 -14 33.5 -19t24.5 -5q38 0 38 60h98q0 -82 -30 -119.5t-91 -37.5q-28 0 -53.5 9t-57.5 30q-21 14 -33.5 19.5t-24.5 5.5q-38 0 -38 -61h-98q0 82 30 119.5z" />
<glyph unicode="&#xe4;" horiz-adv-x="689" d="M620 0h-152v69q-44 -44 -95.5 -63.5t-118.5 -19.5q-103 0 -158.5 41.5t-55.5 118.5q0 85 73 127.5t227 46.5l123 3v20q0 88 -115 88q-106 0 -127 -58l-149 12q31 153 282 153q266 0 266 -208v-330zM379 107.5q37 13.5 60.5 38.5t23.5 61v25l-113 -3q-79 -2 -115.5 -19 t-36.5 -52q0 -64 102 -64q42 0 79 13.5zM154 721h151v-120h-151v120zM407 721h151v-120h-151v120z" />
<glyph unicode="&#xe5;" horiz-adv-x="689" d="M620 0h-152v69q-44 -44 -95.5 -63.5t-118.5 -19.5q-103 0 -158.5 41.5t-55.5 118.5q0 85 73 127.5t227 46.5l123 3v20q0 88 -115 88q-106 0 -127 -58l-149 12q31 153 282 153q266 0 266 -208v-330zM379 107.5q37 13.5 60.5 38.5t23.5 61v25l-113 -3q-79 -2 -115.5 -19 t-36.5 -52q0 -64 102 -64q42 0 79 13.5zM356 578q-58 0 -99.5 30.5t-41.5 85.5q0 56 41 86.5t100 30.5t100 -30.5t41 -86.5q0 -55 -41 -85.5t-100 -30.5zM356 650q26 0 41 11t15 33q0 23 -15 34t-41 11q-25 0 -40.5 -11t-15.5 -34q0 -22 15.5 -33t40.5 -11z" />
<glyph unicode="&#xe6;" horiz-adv-x="1096" d="M753 -16q-165 0 -236 101q-42 -53 -111 -76t-152 -23q-103 0 -158.5 41.5t-55.5 118.5q0 85 74 127.5t226 46.5l117 2v23q0 86 -109 86q-106 0 -127 -58l-149 12q31 153 282 153q82 0 128.5 -21t68.5 -52q78 73 206 73q138 0 215 -70.5t77 -198.5v-45h-437q7 -67 44 -98 t101 -31q106 0 130 64h155q-42 -175 -289 -175zM300 94q43 0 78.5 14t57 39.5t21.5 59.5v25l-107 -3q-79 -2 -115.5 -19t-36.5 -52q0 -64 102 -64zM755 429q-71 0 -101.5 -33t-39.5 -82h279q-2 56 -37.5 85.5t-100.5 29.5z" />
<glyph unicode="&#xe7;" horiz-adv-x="681" d="M47 258q0 87 38 150t108 96.5t166 33.5q84 0 141 -25t90 -67.5t44 -97.5l-157 -18q-21 84 -117 84q-69 0 -106 -39.5t-37 -113.5t37 -113t107 -39q109 0 124 86h158q-14 -96 -85 -153.5t-201 -57.5q-151 0 -230.5 73.5t-79.5 200.5zM308 18l80 -18l-19 -45 q60 -6 88 -27.5t28 -57.5q0 -42 -39 -65t-113 -23q-34 0 -61.5 3t-44.5 9v73q45 -9 80 -9q61 0 61 23q0 14 -17 19.5t-60 5.5h-32z" />
<glyph unicode="&#xe8;" horiz-adv-x="699" d="M351 -16q-144 0 -224 71.5t-80 199.5q0 86 38.5 149.5t108 98.5t161.5 35q142 0 219 -70.5t77 -198.5v-45h-444q7 -66 45 -97.5t104 -31.5q110 0 134 64h155q-42 -175 -294 -175zM211 314h284q-4 60 -37 87.5t-104 27.5q-73 0 -104 -33t-39 -82zM130 747h187l148 -160 h-151z" />
<glyph unicode="&#xe9;" horiz-adv-x="699" d="M351 -16q-144 0 -224 71.5t-80 199.5q0 86 38.5 149.5t108 98.5t161.5 35q142 0 219 -70.5t77 -198.5v-45h-444q7 -66 45 -97.5t104 -31.5q110 0 134 64h155q-42 -175 -294 -175zM211 314h284q-4 60 -37 87.5t-104 27.5q-73 0 -104 -33t-39 -82zM397 747h187l-184 -160 h-151z" />
<glyph unicode="&#xea;" horiz-adv-x="699" d="M351 -16q-144 0 -224 71.5t-80 199.5q0 86 38.5 149.5t108 98.5t161.5 35q142 0 219 -70.5t77 -198.5v-45h-444q7 -66 45 -97.5t104 -31.5q110 0 134 64h155q-42 -175 -294 -175zM211 314h284q-4 60 -37 87.5t-104 27.5q-73 0 -104 -33t-39 -82zM280 747h154l148 -160 h-140l-85 86l-86 -86h-139z" />
<glyph unicode="&#xeb;" horiz-adv-x="699" d="M351 -16q-144 0 -224 71.5t-80 199.5q0 86 38.5 149.5t108 98.5t161.5 35q142 0 219 -70.5t77 -198.5v-45h-444q7 -66 45 -97.5t104 -31.5q110 0 134 64h155q-42 -175 -294 -175zM211 314h284q-4 60 -37 87.5t-104 27.5q-73 0 -104 -33t-39 -82zM155 721h151v-120h-151 v120zM408 721h151v-120h-151v120z" />
<glyph unicode="&#xec;" horiz-adv-x="312" d="M73 522h166v-522h-166v522zM-71 747h187l148 -160h-151z" />
<glyph unicode="&#xed;" horiz-adv-x="312" d="M73 522h166v-522h-166v522zM196 747h187l-184 -160h-151z" />
<glyph unicode="&#xee;" horiz-adv-x="312" d="M73 522h166v-522h-166v522zM79 747h154l148 -160h-140l-85 86l-86 -86h-139z" />
<glyph unicode="&#xef;" horiz-adv-x="312" d="M73 522h166v-522h-166v522zM-46 721h151v-120h-151v120zM207 721h151v-120h-151v120z" />
<glyph unicode="&#xf0;" horiz-adv-x="727" d="M680 298q0 -86 -32 -157.5t-103.5 -114t-188.5 -42.5q-144 0 -226.5 65.5t-82.5 180.5q0 67 32 124.5t95.5 92.5t157.5 35q58 0 100.5 -13.5t79.5 -44.5q-16 62 -53.5 101.5t-91.5 62.5l-86 -76l-51 52l56 50q-30 7 -63 11t-68 6l15 114q62 -4 118 -12t105 -25l81 72 l51 -53l-58 -51q101 -54 157 -146t56 -232zM473 329q-39 31 -109 31q-79 0 -113.5 -37.5t-34.5 -89.5q0 -60 39 -93.5t109 -33.5q77 0 112.5 38.5t35.5 92.5q0 61 -39 92z" />
<glyph unicode="&#xf1;" horiz-adv-x="729" d="M73 522h163v-80q43 48 95 72t117 24q102 0 157 -51.5t55 -147.5v-339h-166v308q0 53 -25.5 77.5t-81.5 24.5q-30 0 -59 -11t-50 -31q-39 -36 -39 -85v-283h-166v522zM186 710.5q30 37.5 91 37.5q28 0 53.5 -8.5t57.5 -30.5q21 -14 33.5 -19t24.5 -5q38 0 38 60h98 q0 -82 -30 -119.5t-91 -37.5q-28 0 -53.5 9t-57.5 30q-21 14 -33.5 19.5t-24.5 5.5q-38 0 -38 -61h-98q0 82 30 119.5z" />
<glyph unicode="&#xf2;" horiz-adv-x="729" d="M47 259q0 87 39 149.5t111.5 96t170.5 33.5q149 0 231.5 -72t82.5 -203q0 -86 -39 -148.5t-111 -96.5t-171 -34q-148 0 -231 72.5t-83 202.5zM513 261q0 74 -38.5 113.5t-109.5 39.5t-109.5 -39.5t-38.5 -113.5q0 -73 38 -112.5t109 -39.5q72 0 110.5 39.5t38.5 112.5z M138 747h187l148 -160h-151z" />
<glyph unicode="&#xf3;" horiz-adv-x="729" d="M47 259q0 87 39 149.5t111.5 96t170.5 33.5q149 0 231.5 -72t82.5 -203q0 -86 -39 -148.5t-111 -96.5t-171 -34q-148 0 -231 72.5t-83 202.5zM513 261q0 74 -38.5 113.5t-109.5 39.5t-109.5 -39.5t-38.5 -113.5q0 -73 38 -112.5t109 -39.5q72 0 110.5 39.5t38.5 112.5z M405 747h187l-184 -160h-151z" />
<glyph unicode="&#xf4;" horiz-adv-x="729" d="M47 259q0 87 39 149.5t111.5 96t170.5 33.5q149 0 231.5 -72t82.5 -203q0 -86 -39 -148.5t-111 -96.5t-171 -34q-148 0 -231 72.5t-83 202.5zM513 261q0 74 -38.5 113.5t-109.5 39.5t-109.5 -39.5t-38.5 -113.5q0 -73 38 -112.5t109 -39.5q72 0 110.5 39.5t38.5 112.5z M288 747h154l148 -160h-140l-85 86l-86 -86h-139z" />
<glyph unicode="&#xf5;" horiz-adv-x="729" d="M47 259q0 87 39 149.5t111.5 96t170.5 33.5q149 0 231.5 -72t82.5 -203q0 -86 -39 -148.5t-111 -96.5t-171 -34q-148 0 -231 72.5t-83 202.5zM513 261q0 74 -38.5 113.5t-109.5 39.5t-109.5 -39.5t-38.5 -113.5q0 -73 38 -112.5t109 -39.5q72 0 110.5 39.5t38.5 112.5z M182 710.5q30 37.5 91 37.5q28 0 53.5 -8.5t57.5 -30.5q21 -14 33.5 -19t24.5 -5q38 0 38 60h98q0 -82 -30 -119.5t-91 -37.5q-28 0 -53.5 9t-57.5 30q-21 14 -33.5 19.5t-24.5 5.5q-38 0 -38 -61h-98q0 82 30 119.5z" />
<glyph unicode="&#xf6;" horiz-adv-x="729" d="M47 259q0 87 39 149.5t111.5 96t170.5 33.5q149 0 231.5 -72t82.5 -203q0 -86 -39 -148.5t-111 -96.5t-171 -34q-148 0 -231 72.5t-83 202.5zM513 261q0 74 -38.5 113.5t-109.5 39.5t-109.5 -39.5t-38.5 -113.5q0 -73 38 -112.5t109 -39.5q72 0 110.5 39.5t38.5 112.5z M163 721h151v-120h-151v120zM416 721h151v-120h-151v120z" />
<glyph unicode="&#xf7;" d="M68 272v137h564v-137h-564zM276 71v128h148v-128h-148zM276 482v127h148v-127h-148z" />
<glyph unicode="&#xf8;" horiz-adv-x="729" d="M682 263q0 -86 -39 -148.5t-111 -96.5t-171 -34q-86 0 -151 25l-61 -73l-66 54l52 62q-88 73 -88 207q0 87 39 149.5t111.5 96t170.5 33.5q86 0 151 -25l61 73l66 -54l-52 -62q88 -73 88 -207zM246.5 380.5q-41.5 -41.5 -41.5 -119.5q0 -58 24 -96l205 246q-30 11 -69 11 q-77 0 -118.5 -41.5zM501 358l-206 -247q30 -11 69 -11q77 0 118.5 42t41.5 119q0 59 -23 97z" />
<glyph unicode="&#xf9;" horiz-adv-x="720" d="M648 0h-163v81q-41 -46 -92 -71.5t-118 -25.5q-97 0 -151.5 51.5t-54.5 145.5v341h166v-310q0 -100 101 -100q59 0 106 42q39 34 39 83v285h167v-522zM132 747h187l148 -160h-151z" />
<glyph unicode="&#xfa;" horiz-adv-x="720" d="M648 0h-163v81q-41 -46 -92 -71.5t-118 -25.5q-97 0 -151.5 51.5t-54.5 145.5v341h166v-310q0 -100 101 -100q59 0 106 42q39 34 39 83v285h167v-522zM399 747h187l-184 -160h-151z" />
<glyph unicode="&#xfb;" horiz-adv-x="720" d="M648 0h-163v81q-41 -46 -92 -71.5t-118 -25.5q-97 0 -151.5 51.5t-54.5 145.5v341h166v-310q0 -100 101 -100q59 0 106 42q39 34 39 83v285h167v-522zM282 747h154l148 -160h-140l-85 86l-86 -86h-139z" />
<glyph unicode="&#xfc;" horiz-adv-x="720" d="M648 0h-163v81q-41 -46 -92 -71.5t-118 -25.5q-97 0 -151.5 51.5t-54.5 145.5v341h166v-310q0 -100 101 -100q59 0 106 42q39 34 39 83v285h167v-522zM157 721h151v-120h-151v120zM410 721h151v-120h-151v120z" />
<glyph unicode="&#xfd;" horiz-adv-x="668" d="M393 -28q-33 -68 -63.5 -107t-67.5 -54.5t-90 -15.5q-35 0 -64 5t-62 17l24 113q19 -6 36.5 -8.5t36.5 -2.5q36 0 59 16t42 55l21 43l-257 489h181l155 -342l142 342h174zM378 747h187l-184 -160h-151z" />
<glyph unicode="&#xfe;" horiz-adv-x="750" d="M73 714h166v-265q35 43 88.5 66t119.5 23q77 0 134 -34t89 -94.5t32 -142.5t-33 -146t-94 -100.5t-144 -36.5q-126 0 -192 83v-261h-166v908zM495.5 148.5q37.5 39.5 37.5 114.5q0 72 -37.5 111t-106.5 39q-66 0 -108.5 -39t-42.5 -98v-25q0 -63 39.5 -102.5t106.5 -39.5 q74 0 111.5 39.5z" />
<glyph unicode="&#xff;" horiz-adv-x="668" d="M393 -28q-33 -68 -63.5 -107t-67.5 -54.5t-90 -15.5q-35 0 -64 5t-62 17l24 113q19 -6 36.5 -8.5t36.5 -2.5q36 0 59 16t42 55l21 43l-257 489h181l155 -342l142 342h174zM136 721h151v-120h-151v120zM389 721h151v-120h-151v120z" />
<glyph unicode="&#x131;" horiz-adv-x="312" d="M73 522h166v-522h-166v522z" />
<glyph unicode="&#x152;" horiz-adv-x="1316" d="M52 357q0 73 22.5 140t69.5 120t118.5 84t169.5 31q158 0 248 -94v76h570v-134h-404v-149h382v-133h-382v-164h427l-19 -134h-574v78q-90 -96 -248 -96q-114 0 -199.5 45.5t-133 129.5t-47.5 200zM680 357q0 113 -58.5 171.5t-161.5 58.5q-62 0 -105 -19.5t-69.5 -53 t-38.5 -74.5t-12 -83q0 -109 59 -169.5t166 -60.5q103 0 161.5 58.5t58.5 171.5z" />
<glyph unicode="&#x153;" horiz-adv-x="1149" d="M810 538q139 0 215.5 -70.5t76.5 -198.5v-45h-437q7 -67 44.5 -98t101.5 -31q104 0 130 64h154q-42 -175 -289 -175q-149 0 -221 88q-79 -88 -224 -88q-148 0 -231 72.5t-83 202.5q0 87 39 149.5t111.5 96t170.5 33.5q73 0 129.5 -23t94.5 -65q37 42 92 65t126 23z M365 414q-71 0 -109.5 -39.5t-38.5 -113.5q0 -73 38 -112.5t109 -39.5q68 0 105.5 39.5t37.5 112.5q0 74 -37 113.5t-105 39.5zM667 314h279q-5 115 -138 115q-70 0 -101 -33t-40 -82z" />
<glyph unicode="&#x178;" horiz-adv-x="801" d="M488 281v-281h-176v282l-300 432h195l196 -297l197 297h189zM192 912h158v-132h-158v132zM456 912h158v-132h-158v132z" />
<glyph unicode="&#x237;" horiz-adv-x="312" d="M73 522h166v-534q0 -101 -44.5 -147t-142.5 -46q-71 0 -136 19l24 111q22 -4 39 -6t31 -2q35 0 49 14.5t14 51.5v539z" />
<glyph unicode="&#x2c6;" horiz-adv-x="729" d="M287 747h154l148 -160h-140l-85 86l-86 -86h-139z" />
<glyph unicode="&#x2dc;" horiz-adv-x="729" d="M181 710.5q30 37.5 91 37.5q28 0 53.5 -8.5t57.5 -30.5q21 -14 33.5 -19t24.5 -5q38 0 38 60h98q0 -82 -30 -119.5t-91 -37.5q-28 0 -53.5 9t-57.5 30q-21 14 -33.5 19.5t-24.5 5.5q-38 0 -38 -61h-98q0 82 30 119.5z" />
<glyph unicode="&#x300;" horiz-adv-x="0" d="M-227 747h187l148 -160h-151z" />
<glyph unicode="&#x301;" horiz-adv-x="0" d="M40 747h187l-184 -160h-151z" />
<glyph unicode="&#x302;" horiz-adv-x="0" d="M-77 747h154l148 -160h-140l-85 86l-86 -86h-139z" />
<glyph unicode="&#x303;" horiz-adv-x="0" d="M-183 710.5q30 37.5 91 37.5q28 0 53.5 -8.5t57.5 -30.5q21 -14 33.5 -19t24.5 -5q38 0 38 60h98q0 -82 -30 -119.5t-91 -37.5q-28 0 -53.5 9t-57.5 30q-21 14 -33.5 19.5t-24.5 5.5q-38 0 -38 -61h-98q0 82 30 119.5z" />
<glyph unicode="&#x304;" horiz-adv-x="0" d="M-179 717h358v-105h-358v105z" />
<glyph unicode="&#x307;" horiz-adv-x="0" d="M-84 721h169v-120h-169v120z" />
<glyph unicode="&#x308;" horiz-adv-x="0" d="M-202 721h151v-120h-151v120zM51 721h151v-120h-151v120z" />
<glyph unicode="&#x30a;" horiz-adv-x="0" d="M0 578q-58 0 -99.5 30.5t-41.5 85.5q0 56 41 86.5t100 30.5t100 -30.5t41 -86.5q0 -55 -41 -85.5t-100 -30.5zM0 650q26 0 41 11t15 33q0 23 -15 34t-41 11q-25 0 -40.5 -11t-15.5 -34q0 -22 15.5 -33t40.5 -11z" />
<glyph unicode="&#x327;" horiz-adv-x="0" d="M-44 18l80 -18l-19 -45q60 -6 88 -27.5t28 -57.5q0 -42 -39 -65t-113 -23q-34 0 -61.5 3t-44.5 9v73q45 -9 80 -9q61 0 61 23q0 14 -17 19.5t-60 5.5h-32z" />
<glyph unicode="&#x2000;" horiz-adv-x="489" />
<glyph unicode="&#x2001;" horiz-adv-x="978" />
<glyph unicode="&#x2002;" horiz-adv-x="489" />
<glyph unicode="&#x2003;" horiz-adv-x="978" />
<glyph unicode="&#x2004;" horiz-adv-x="326" />
<glyph unicode="&#x2005;" horiz-adv-x="244" />
<glyph unicode="&#x2006;" horiz-adv-x="163" />
<glyph unicode="&#x2007;" horiz-adv-x="163" />
<glyph unicode="&#x2008;" horiz-adv-x="122" />
<glyph unicode="&#x2009;" horiz-adv-x="195" />
<glyph unicode="&#x200a;" horiz-adv-x="54" />
<glyph unicode="&#x2010;" horiz-adv-x="487" d="M45 370h397v-145h-397v145z" />
<glyph unicode="&#x2011;" horiz-adv-x="487" d="M45 370h397v-145h-397v145z" />
<glyph unicode="&#x2012;" horiz-adv-x="487" d="M45 370h397v-145h-397v145z" />
<glyph unicode="&#x2013;" horiz-adv-x="610" d="M0 367h610v-139h-610v139z" />
<glyph unicode="&#x2014;" horiz-adv-x="1220" d="M0 367h1220v-139h-1220v139z" />
<glyph unicode="&#x2018;" horiz-adv-x="267" d="M107 714h129l-41 -272h-164z" />
<glyph unicode="&#x2019;" horiz-adv-x="267" d="M72 714h164l-76 -272h-129z" />
<glyph unicode="&#x201a;" horiz-adv-x="267" d="M72 171h164l-76 -272h-129z" />
<glyph unicode="&#x201c;" horiz-adv-x="496" d="M107 714h129l-41 -272h-164zM335 714h129l-41 -272h-164z" />
<glyph unicode="&#x201d;" horiz-adv-x="496" d="M72 714h164l-76 -272h-129zM300 714h164l-76 -272h-129z" />
<glyph unicode="&#x201e;" horiz-adv-x="496" d="M72 171h164l-76 -272h-129zM300 171h164l-76 -272h-129z" />
<glyph unicode="&#x2022;" horiz-adv-x="423" d="M42 297q0 69 47 112.5t122 43.5q76 0 123 -43.5t47 -112.5t-47 -112.5t-123 -43.5q-75 0 -122 43.5t-47 112.5z" />
<glyph unicode="&#x2026;" horiz-adv-x="1220" d="M121 171h165v-171h-165v171zM528 171h165v-171h-165v171zM934 171h165v-171h-165v171z" />
<glyph unicode="&#x202f;" horiz-adv-x="195" />
<glyph unicode="&#x2039;" horiz-adv-x="408" d="M368 30h-172l-160 226l160 227h170l-145 -225z" />
<glyph unicode="&#x203a;" horiz-adv-x="408" d="M40 483h172l160 -226l-160 -227h-170l146 225z" />
<glyph unicode="&#x2044;" horiz-adv-x="133" d="M194 691h152l-407 -691h-151z" />
<glyph unicode="&#x205f;" horiz-adv-x="244" />
<glyph unicode="&#x20ac;" d="M102 234h-90l18 79h64q-1 16 -1 32q0 17 1 33h-82l18 80h73q23 116 98.5 184t207.5 68q119 0 187 -46.5t92 -145.5l-156 -18q-15 45 -44 64t-82 19q-61 0 -94.5 -34t-46.5 -91h263l-18 -80h-255q-1 -16 -1 -33t1 -32h244l-18 -79h-218q12 -60 45.5 -92.5t97.5 -32.5 q57 0 88 21.5t43 68.5h160q-17 -106 -91.5 -161.5t-202.5 -55.5q-259 0 -301 252z" />
<glyph unicode="&#x2122;" horiz-adv-x="1115" d="M498 714h135l137 -286l136 286h132v-400h-104v262l-124 -262h-86l-123 261v-261h-103v400zM165 620h-153v94h421v-94h-153v-306h-115v306z" />
<glyph unicode="&#x25fc;" horiz-adv-x="520" d="M0 520h520v-520h-520v520z" />
<glyph unicode="&#xfb01;" horiz-adv-x="787" d="M123 387h-101v121h101v27q0 88 58.5 137.5t163.5 49.5q37 0 70 -4t67 -14l-24 -110q-19 5 -37 6.5t-40 1.5q-92 0 -92 -69v-25h163v-121h-163v-387h-166v387zM549 522h166v-522h-166v522zM548 721h169v-120h-169v120z" />
<glyph unicode="&#xfb02;" horiz-adv-x="787" d="M123 387h-101v121h101v27q0 88 58.5 137.5t163.5 49.5q37 0 70 -4t67 -14l-24 -110q-19 5 -37 6.5t-40 1.5q-92 0 -92 -69v-25h163v-121h-163v-387h-166v387zM549 714h166v-714h-166v714z" />
<glyph unicode="&#xfb03;" horiz-adv-x="1263" d="M123 387h-101v121h101v27q0 88 58.5 137.5t163.5 49.5q37 0 70 -4t67 -14l-24 -110q-19 5 -37 6.5t-40 1.5q-92 0 -92 -69v-25h163v-121h-163v-387h-166v387zM599 387h-101v121h101v27q0 88 58.5 137.5t163.5 49.5q37 0 70 -4t67 -14l-24 -110q-19 5 -37 6.5t-40 1.5 q-92 0 -92 -69v-25h163v-121h-163v-387h-166v387zM1024 522h166v-522h-166v522zM1023 721h169v-120h-169v120z" />
<glyph unicode="&#xfb04;" horiz-adv-x="1263" d="M123 387h-101v121h101v27q0 88 58.5 137.5t163.5 49.5q37 0 70 -4t67 -14l-24 -110q-19 5 -37 6.5t-40 1.5q-92 0 -92 -69v-25h163v-121h-163v-387h-166v387zM599 387h-101v121h101v27q0 88 58.5 137.5t163.5 49.5q37 0 70 -4t67 -14l-24 -110q-19 5 -37 6.5t-40 1.5 q-92 0 -92 -69v-25h163v-121h-163v-387h-166v387zM1024 714h166v-714h-166v714z" />
<glyph horiz-adv-x="492" d="M455 204q0 -100 -56 -158.5t-154 -58.5t-153 57.5t-55 157.5q0 101 56.5 159t153.5 58q98 0 153 -57t55 -158zM182.5 113q20.5 -29 63.5 -29t63.5 29t20.5 90q0 62 -20 91t-64 29q-84 0 -84 -120q0 -61 20.5 -90z" />
<glyph horiz-adv-x="492" d="M363 0h-126v283l-112 -68l-50 83l176 108h112v-406z" />
<glyph horiz-adv-x="492" d="M255 419q83 0 131 -34t48 -93q0 -26 -12 -48.5t-42.5 -48.5t-85.5 -62q-11 -7 -27 -17.5t-38 -23.5h213l-12 -92h-371v84q33 20 66.5 41.5t67.5 43.5q52 35 76.5 53.5t32.5 31t8 26.5q0 48 -62 48q-34 0 -53 -13.5t-27 -42.5l-115 11q32 136 202 136z" />
<glyph horiz-adv-x="492" d="M251 419q86 0 134.5 -30.5t48.5 -85.5q0 -58 -70 -87q81 -27 81 -99q0 -61 -51 -95.5t-143 -34.5q-94 0 -146.5 38.5t-54.5 108.5h113q5 -32 25.5 -46.5t58.5 -14.5q77 0 77 49q0 45 -70 45h-51v82h50q29 0 45.5 11.5t16.5 32.5q0 41 -69 41q-34 0 -52.5 -11.5 t-26.5 -37.5l-112 11q32 123 196 123z" />
<glyph horiz-adv-x="492" d="M270 406h123v-243h70l-11 -85h-59v-78h-110v78h-244v82zM283 307l-136 -144h136v144z" />
<glyph horiz-adv-x="0" d="M-46 19l83 -19l-19 -46q119 -13 119 -90q0 -43 -41 -66.5t-117 -23.5q-71 0 -109 12v73q51 -9 83 -9q64 0 64 26q0 14 -18.5 20.5t-63.5 6.5h-31z" />
<glyph horiz-adv-x="0" d="M40 923h198l-185 -150h-163z" />
<glyph horiz-adv-x="0" d="M-238 923h198l150 -150h-163z" />
<glyph horiz-adv-x="0" d="M-80 923h160l145 -150h-145l-80 77l-81 -77h-144z" />
<glyph horiz-adv-x="0" d="M-185.5 892.5q30.5 36.5 92.5 36.5q24 0 50.5 -8.5t60.5 -28.5q26 -13 39.5 -19t25.5 -6q19 0 25.5 14t6.5 45h102q0 -80 -30.5 -117.5t-92.5 -37.5q-24 0 -49 8.5t-60 27.5q-25 14 -40 20t-26 6q-19 0 -26 -14.5t-7 -44.5h-102q0 82 30.5 118.5z" />
<glyph horiz-adv-x="0" d="M-211 912h158v-132h-158v132zM53 912h158v-132h-158v132z" />
<glyph horiz-adv-x="0" d="M0 736q-66 0 -106 33.5t-40 87.5q0 55 40 88t106 33t106 -33t40 -88q0 -54 -40 -87.5t-106 -33.5zM0 904q-57 0 -57 -47q0 -46 57 -46t57 46q0 47 -57 47z" />
</font>
</defs>
</svg>
