<?xml version="1.0" standalone="no"?>
<!DOCTYPE svg PUBLIC "-//W3C//DTD SVG 1.1//EN" "http://www.w3.org/Graphics/SVG/1.1/DTD/svg11.dtd" >
<svg xmlns="http://www.w3.org/2000/svg" xmlns:xlink="http://www.w3.org/1999/xlink" version="1.1">
<metadata></metadata>
<defs>
<font id="roc_groteskregular" horiz-adv-x="604" >
<font-face units-per-em="1000" ascent="760" descent="-240" />
<missing-glyph horiz-adv-x="230" />
<glyph unicode="&#xfb01;" horiz-adv-x="622" d="M96 0v424h-83v70h83v49q0 80 45.5 125t123.5 45q48 0 87 -13v-71q-36 12 -77 12q-47 0 -73 -25.5t-26 -72.5v-49h184v-70h-184v-424h-80zM464 557v101h86v-101h-86zM467 0v494h80v-494h-80z" />
<glyph unicode="&#xfb02;" horiz-adv-x="622" d="M96 0v424h-83v70h83v49q0 80 45.5 125t123.5 45q48 0 87 -13v-71q-36 12 -77 12q-47 0 -73 -25.5t-26 -72.5v-49h184v-70h-184v-424h-80zM467 0v693h80v-693h-80z" />
<glyph horiz-adv-x="0" />
<glyph horiz-adv-x="333" />
<glyph horiz-adv-x="0" />
<glyph horiz-adv-x="0" />
<glyph unicode="&#xd;" horiz-adv-x="204" />
<glyph unicode=" "  horiz-adv-x="230" />
<glyph unicode="&#x09;" horiz-adv-x="230" />
<glyph unicode="&#xa0;" horiz-adv-x="230" />
<glyph unicode="!" horiz-adv-x="206" d="M87 221l-24 343v108h80v-108l-24 -343h-32zM60 0v114h86v-114h-86z" />
<glyph unicode="&#x22;" horiz-adv-x="357" d="M86 422l-26 216v20h80v-20l-26 -216h-28zM242 422l-25 216v20h80v-20l-26 -216h-29z" />
<glyph unicode="#" d="M578 418h-132l-32 -184h164v-72h-176l-28 -162h-52l28 162h-153l-28 -162h-52l28 162h-119v72h131l31 184h-162v72h174l29 168h52l-29 -168h154l29 168h52l-29 -168h120v-72zM362 234l32 184h-154l-31 -184h153z" />
<glyph unicode="$" d="M553 208q0 -68 -43.5 -114.5t-137.5 -59.5v-107h-36v103q-12 -1 -37 -1q-22 0 -33 1v-103h-36v107q-97 14 -138 66.5t-41 125.5h76q2 -99 103 -122v199q-89 17 -123 39q-54 35 -54 111q0 63 46.5 110t130.5 61v107h36v-103q10 1 30 1q14 0 40 -2v104h36v-108 q160 -29 160 -196h-74q0 101 -86 125v-201q80 -13 115 -30q66 -32 66 -113zM298 561q-22 0 -32 -1v-193l59 -9q3 0 11 -2v203q-24 2 -38 2zM170 391q20 -10 60 -18v181q-46 -10 -71.5 -35.5t-25.5 -60.5q0 -48 37 -67zM298 97q26 0 38 1v190q-40 6 -59 8q-3 0 -11 2v-200 q10 -1 32 -1zM372 103q101 20 101 100q0 50 -42 66q-17 7 -59 14v-180z" />
<glyph unicode="%" d="M168 376q-65 0 -100 37t-35 109q0 67 35.5 106t99.5 39q63 0 99 -39t36 -106q0 -72 -35 -109t-100 -37zM31 0l486 658h56l-487 -658h-55zM168 423q82 0 82 99q0 48 -22 73t-60 25q-39 0 -60.5 -25t-21.5 -73q0 -99 82 -99zM436 -9q-65 0 -100 37t-35 109q0 67 35.5 106 t99.5 39t99.5 -39t35.5 -106q0 -72 -35 -109t-100 -37zM436 38q82 0 82 99q0 48 -22 73.5t-60 25.5q-39 0 -60.5 -25.5t-21.5 -73.5q0 -99 82 -99z" />
<glyph unicode="&#x26;" horiz-adv-x="703" d="M660 65q8 0 14 1v-71q-8 -2 -23 -2q-89 0 -178 66q-83 -69 -193 -69q-103 0 -165.5 57t-62.5 148q0 74 46 127t125 68q-29 68 -29 120q0 73 44 115.5t118 42.5q71 0 114 -40.5t43 -105.5q0 -69 -50 -117t-134 -58q59 -100 146 -185q61 83 93 209h74q-36 -151 -114 -254 q70 -52 132 -52zM356 596q-37 0 -60 -23.5t-23 -62.5q0 -48 26 -106q67 10 103.5 41t36.5 75q0 33 -22.5 54.5t-60.5 21.5zM132 195q0 -58 42 -95.5t111 -37.5q75 0 136 44q-105 107 -168 223h-3q-54 -9 -86 -45.5t-32 -88.5z" />
<glyph unicode="'" horiz-adv-x="200" d="M86 422l-26 216v20h80v-20l-26 -216h-28z" />
<glyph unicode="(" horiz-adv-x="260" d="M182 -147q-68 75 -107.5 187t-39.5 244t40.5 249t108.5 192h68q-67 -78 -109 -196t-42 -245q0 -126 41.5 -239t109.5 -192h-70z" />
<glyph unicode=")" horiz-adv-x="260" d="M7 -147q68 79 110 192t42 239q0 127 -42 245t-110 196h69q67 -76 108 -193t41 -248q0 -132 -39.5 -244t-107.5 -187h-71z" />
<glyph unicode="*" horiz-adv-x="482" d="M156 274l-43 26l86 154l-1 2l-140 41l14 51l141 -43l2 1v174h51v-174l2 -1l142 43l13 -51l-139 -41l-1 -2l86 -154l-44 -26l-83 149h-3z" />
<glyph unicode="+" d="M272 51v203h-202v58h202v203h60v-203h202v-58h-202v-203h-60z" />
<glyph unicode="," horiz-adv-x="254" d="M60 -131v46q59 8 60 83v2h-36v114h86v-85q0 -77 -26 -115t-84 -45z" />
<glyph unicode="-" horiz-adv-x="294" d="M36 254v58h222v-58h-222z" />
<glyph unicode="." horiz-adv-x="254" d="M84 0v114h86v-114h-86z" />
<glyph unicode="/" horiz-adv-x="300" d="M-29 -200l304 940h54l-305 -940h-53z" />
<glyph unicode="0" d="M302 -9q-121 0 -189 91t-68 250q0 156 68 245.5t189 89.5t189 -89.5t68 -245.5q0 -159 -68 -250t-189 -91zM302 65q84 0 129.5 71t45.5 196q0 122 -45.5 191.5t-129.5 69.5t-129.5 -69.5t-45.5 -191.5q0 -125 45.5 -196t129.5 -71z" />
<glyph unicode="1" d="M58 0v74h222v352h-151v61l92 2q20 0 30.5 3.5t19.5 12t12 30t5 50t2 80.5h72v-591h184v-74h-488z" />
<glyph unicode="2" d="M60 0q0 104 34.5 150t162.5 106q120 56 155.5 96t35.5 108q0 59 -39.5 96t-107.5 37q-77 0 -119 -44.5t-42 -122.5q0 -46 6 -76h-76q-6 30 -6 80q0 110 63 173.5t176 63.5q104 0 165.5 -57t61.5 -150q0 -81 -46.5 -138t-182.5 -121q-102 -48 -129.5 -71.5t-27.5 -55.5 h398v-74h-482z" />
<glyph unicode="3" d="M294 -9q-114 0 -181.5 55t-67.5 151q0 12 3 45h76q-1 -17 -1 -32q0 -71 44 -108t127 -37q85 0 133.5 37.5t48.5 104.5q0 49 -33 74.5t-94 25.5h-103v60h87q56 0 85.5 28t29.5 77q0 56 -39.5 88.5t-106.5 32.5q-79 0 -121.5 -36.5t-42.5 -100.5q0 -22 2 -42h-76 q-4 20 -4 54q0 91 64.5 145t177.5 54q103 0 164.5 -50t61.5 -136q0 -49 -25.5 -85t-68.5 -46v-2q57 -7 90.5 -47t33.5 -99q0 -97 -71 -154t-193 -57z" />
<glyph unicode="4" d="M397 0v155h-361v74l350 429h93v-429h109v-74h-109v-155h-82zM124 229h273v333h-1l-272 -332v-1z" />
<glyph unicode="5" d="M307 -9q-113 0 -181 49t-68 130q0 14 2 24h77q-1 -9 -1 -20q0 -49 47 -79t124 -30q73 0 118 45t45 114q0 64 -44.5 102t-120.5 38q-56 0 -99.5 -23.5t-59.5 -63.5l-78 8l26 373h418v-74h-349l-19 -246h2q16 43 63 67.5t114 24.5q107 0 168 -56t61 -150q0 -103 -67 -168 t-178 -65z" />
<glyph unicode="6" d="M314 -9q-140 0 -204.5 85t-64.5 252q0 158 70 248.5t199 90.5q106 0 164.5 -53t58.5 -145q0 -19 -2 -35h-78q2 14 2 34q0 57 -37.5 91t-107.5 34q-92 0 -139.5 -68.5t-47.5 -193.5q0 -56 1 -65h2q8 54 60.5 86t133.5 32q115 0 175 -48t60 -134q0 -96 -67 -153.5 t-178 -57.5zM315 63q73 0 117.5 38t44.5 100q0 56 -41.5 86.5t-119.5 30.5q-79 0 -128 -35.5t-49 -87.5q6 -58 54 -95t122 -37z" />
<glyph unicode="7" d="M148 0q80 341 323 581v1h-431v76h526v-69q-143 -144 -211.5 -273.5t-112.5 -315.5h-94z" />
<glyph unicode="8" d="M302 -9q-118 0 -187.5 52.5t-69.5 143.5q0 60 37 102t97 53v1q-50 10 -78 47.5t-28 89.5q0 87 61.5 137t167.5 50t167.5 -50t61.5 -137q0 -52 -28 -89.5t-78 -47.5v-1q60 -11 97 -53t37 -102q0 -91 -69.5 -143.5t-187.5 -52.5zM302 368q69 0 110 30.5t41 81.5 q0 53 -41 84t-110 31t-110 -31t-41 -84q0 -51 41 -81.5t110 -30.5zM302 63q80 0 127.5 34t47.5 90q0 55 -47.5 87t-127.5 32t-127.5 -32t-47.5 -87q0 -56 47.5 -90t127.5 -34z" />
<glyph unicode="9" d="M298 -9q-111 0 -174.5 50t-63.5 132q0 20 1 33h78q-1 -11 -1 -26q0 -52 42 -84t117 -32q179 0 179 262q0 44 -2 63h-2q-8 -60 -58.5 -97t-132.5 -37q-111 0 -173.5 52.5t-62.5 141.5q0 99 66.5 158.5t182.5 59.5q265 0 265 -331q0 -170 -67 -257.5t-194 -87.5zM284 321 q81 0 129.5 40.5t48.5 105.5q-4 55 -49.5 91t-119.5 36q-78 0 -122 -39.5t-44 -105.5q0 -59 42.5 -93.5t114.5 -34.5z" />
<glyph unicode=":" horiz-adv-x="254" d="M84 347v114h86v-114h-86zM84 0v114h86v-114h-86z" />
<glyph unicode=";" horiz-adv-x="255" d="M85 347v114h86v-114h-86zM60 -131v45q60 8 61 84v2h-36v114h86v-85q0 -76 -26.5 -114t-84.5 -46z" />
<glyph unicode="&#x3c;" d="M503 37l-402 228v46l402 228v-72l-322 -178v-2l322 -178v-72z" />
<glyph unicode="=" d="M70 328v58h464v-58h-464zM70 170v58h464v-58h-464z" />
<glyph unicode="&#x3e;" d="M101 37v72l322 178v2l-322 178v72l402 -228v-46z" />
<glyph unicode="?" horiz-adv-x="513" d="M93 175v167h60q10 -29 42 -47.5t78 -18.5q59 0 95.5 50t36.5 125q0 73 -42 114.5t-102 41.5q-63 0 -98 -34.5t-35 -95.5q0 -17 1 -27h-69q-2 12 -2 35q0 88 54 137.5t149 49.5q94 0 154 -58t60 -161q0 -102 -54 -170.5t-146 -68.5q-42 0 -77 18t-46 45h-1v-102h-58zM81 0 v114h86v-114h-86z" />
<glyph unicode="@" horiz-adv-x="857" d="M427 -160q-183 0 -288.5 95t-105.5 275q0 204 121.5 332t299.5 128q184 0 277.5 -82.5t93.5 -230.5t-59.5 -242.5t-146.5 -94.5q-60 0 -84 36.5t-12 102.5h-2q-39 -139 -162 -139q-73 0 -113 49t-40 125q0 71 27.5 138.5t81 112.5t119.5 45q96 0 130 -69h1l17 61h71 l-49 -260q-12 -70 -12 -97q0 -56 48 -56q54 0 97 86.5t43 201.5q0 271 -327 271q-157 0 -266 -116.5t-109 -301.5q0 -160 91.5 -244t258.5 -84q74 -1 146.5 11t117.5 30l2 -42q-105 -41 -267 -41zM374 87q59 0 102.5 55t60.5 144l15 78q-12 25 -41.5 42t-68.5 17 q-69 0 -114 -72t-45 -154q0 -51 23.5 -80.5t67.5 -29.5z" />
<glyph unicode="A" horiz-adv-x="706" d="M583 0l-64 160h-341l-65 -160h-88l278 658h100l278 -658h-98zM203 222h291l-143 359h-2z" />
<glyph unicode="B" horiz-adv-x="647" d="M80 0v658h268q112 0 168 -45.5t56 -126.5q0 -59 -29.5 -96.5t-86.5 -44.5v-1q67 -6 104 -47.5t37 -106.5q0 -190 -225 -190h-292zM164 369h195q135 0 135 106q0 109 -147 109h-183v-215zM164 74h205q81 0 113.5 31.5t32.5 92.5q0 50 -39.5 79.5t-110.5 29.5h-201v-233z " />
<glyph unicode="C" horiz-adv-x="728" d="M381 -10q-145 0 -238 92.5t-93 245.5q0 154 92 247t239 93q126 0 207.5 -71.5t81.5 -184.5q0 -11 -1 -24h-77v18q0 82 -60 134t-151 52q-109 0 -178 -72.5t-69 -191.5q0 -118 70.5 -190t176.5 -72q92 0 153 50t61 128v12h78v-16q0 -110 -82.5 -180t-209.5 -70z" />
<glyph unicode="D" horiz-adv-x="698" d="M80 0v658h240q152 0 240 -87.5t88 -240.5q0 -154 -82 -242t-225 -88h-261zM164 76h175q105 0 165 67t60 187q0 118 -64.5 185t-177.5 67h-158v-506z" />
<glyph unicode="E" horiz-adv-x="560" d="M80 0v658h436v-76h-352v-220h285v-62h-285v-224h361v-76h-445z" />
<glyph unicode="F" horiz-adv-x="537" d="M80 0v658h427v-76h-343v-232h294v-64h-294v-286h-84z" />
<glyph unicode="G" horiz-adv-x="742" d="M376 -10q-143 0 -234.5 91t-91.5 242q0 153 94.5 249t236.5 96q127 0 206 -64t79 -175q0 -23 -1 -39h-78q1 13 1 35q0 77 -58 122t-149 45q-106 0 -176.5 -74.5t-70.5 -195.5q0 -116 70 -188t172 -72q97 0 154.5 48.5t57.5 124.5v19h-231v62h315v-316h-79q5 42 8 122h-1 q-16 -59 -73 -95.5t-151 -36.5z" />
<glyph unicode="H" horiz-adv-x="732" d="M80 0v658h84v-280h404v280h84v-658h-84v308h-404v-308h-84z" />
<glyph unicode="I" horiz-adv-x="252" d="M84 0v658h84v-658h-84z" />
<glyph unicode="J" horiz-adv-x="614" d="M291 -10q-112 0 -175 65t-63 181q0 31 3 100h78q-3 -75 -3 -101q0 -80 41.5 -124.5t116.5 -44.5q166 0 166 211v381h84v-378q0 -141 -64.5 -215.5t-183.5 -74.5z" />
<glyph unicode="K" horiz-adv-x="715" d="M80 0v658h84v-395h2l399 395h111l-309 -304l326 -354h-116l-272 298l-141 -132v-166h-84z" />
<glyph unicode="L" horiz-adv-x="536" d="M80 0v658h84v-582h346v-76h-430z" />
<glyph unicode="M" horiz-adv-x="849" d="M80 0v658h140l204 -545h1l207 545h137v-658h-85l2 601h-2l-228 -601h-68l-228 601h-2l2 -601h-80z" />
<glyph unicode="N" horiz-adv-x="734" d="M80 0v658h135l357 -546h2v546h80v-658h-99l-393 597h-2v-597h-80z" />
<glyph unicode="O" horiz-adv-x="764" d="M382 -10q-143 0 -237.5 93.5t-94.5 248.5q0 152 94.5 244t237.5 92t237.5 -92t94.5 -244q0 -155 -94.5 -248.5t-237.5 -93.5zM382 66q104 0 176 73t72 193q0 117 -71.5 188.5t-176.5 71.5t-176.5 -71.5t-71.5 -188.5q0 -120 72 -193t176 -73z" />
<glyph unicode="P" horiz-adv-x="643" d="M80 0v658h262q119 0 185.5 -59.5t66.5 -162.5q0 -104 -62.5 -161.5t-173.5 -57.5h-194v-217h-84zM164 281h187q77 0 119 38t42 112q0 73 -45 112t-128 39h-175v-301z" />
<glyph unicode="Q" horiz-adv-x="764" d="M382 -10q-143 0 -237.5 93.5t-94.5 248.5q0 152 94.5 244t237.5 92q144 0 238 -92.5t94 -243.5q0 -105 -52 -178t-133 -97v-2q13 1 79.5 3.5t96.5 4.5v-73h-323zM382 66q104 0 176 73t72 193q0 117 -71.5 188.5t-176.5 71.5t-176.5 -71.5t-71.5 -188.5q0 -120 72 -193 t176 -73z" />
<glyph unicode="R" horiz-adv-x="658" d="M80 0v658h273q121 0 184 -49.5t63 -137.5q0 -142 -127 -158v-2q123 -15 123 -152v-159h-86v159q0 56 -31.5 85.5t-108.5 29.5h-206v-274h-84zM164 336h188q166 0 166 128q0 56 -41.5 87t-123.5 31h-189v-246z" />
<glyph unicode="S" horiz-adv-x="645" d="M318 -10q-76 0 -130 19.5t-82.5 53.5t-41 73.5t-12.5 87.5h78q0 -162 188 -162q193 0 193 122q0 58 -52 79q-27 11 -168 31q-125 15 -176 46q-65 39 -65 129q0 88 73.5 143.5t191.5 55.5q134 0 195.5 -60t61.5 -177h-78q0 165 -177 165q-81 0 -132 -33t-51 -87 q0 -59 44 -81q35 -17 168 -36q131 -18 178 -42q71 -35 71 -128q0 -40 -13.5 -73.5t-43.5 -63t-86.5 -46t-133.5 -16.5z" />
<glyph unicode="T" horiz-adv-x="564" d="M240 0v583h-218v75h520v-75h-218v-583h-84z" />
<glyph unicode="U" horiz-adv-x="706" d="M354 -10q-129 0 -204 69t-75 183v416h84v-416q0 -81 52.5 -128.5t145.5 -47.5t145.5 47.5t52.5 128.5v416h76v-416q0 -114 -74.5 -183t-202.5 -69z" />
<glyph unicode="V" horiz-adv-x="686" d="M293 0l-271 658h93l230 -577h3l227 577h89l-272 -658h-99z" />
<glyph unicode="W" horiz-adv-x="992" d="M239 0l-217 658h90l175 -549h3l167 542h86l165 -542h3l175 549h84l-218 -658h-90l-163 529h-3l-166 -529h-91z" />
<glyph unicode="X" horiz-adv-x="648" d="M24 0l249 334l-242 324h105l194 -268l189 268h98l-241 -320l248 -338h-104l-200 278l-198 -278h-98z" />
<glyph unicode="Y" horiz-adv-x="657" d="M286 0v269l-264 389h103l208 -320h2l208 320h92l-265 -389v-269h-84z" />
<glyph unicode="Z" horiz-adv-x="607" d="M50 0v59l400 522v1h-392v76h499v-63l-398 -518v-1h394v-76h-503z" />
<glyph unicode="[" horiz-adv-x="333" d="M63 -185v973h259v-46h-184v-881h184v-46h-259z" />
<glyph unicode="\" horiz-adv-x="302" d="M251 -200l-254 940h53l253 -940h-52z" />
<glyph unicode="]" horiz-adv-x="333" d="M12 -185v46h184v881h-184v46h259v-973h-259z" />
<glyph unicode="^" d="M52 354l225 318h50l225 -318h-74l-175 250h-2l-175 -250h-74z" />
<glyph unicode="_" horiz-adv-x="606" d="M0 -153v58h606v-58h-606z" />
<glyph unicode="a" horiz-adv-x="577" d="M233 -8q-84 0 -133.5 40t-49.5 110q0 57 44 93.5t137 36.5h201v36q0 126 -151 126q-141 0 -141 -101q0 -10 1 -18h-74q-2 14 -2 30q0 73 58.5 115t159.5 42q109 0 169 -52.5t60 -148.5v-301h-80q3 69 4 117h-1q-28 -125 -202 -125zM249 60q84 0 133.5 40t49.5 107v7h-194 q-60 0 -86.5 -17.5t-26.5 -54.5q0 -38 33 -60t91 -22z" />
<glyph unicode="b" horiz-adv-x="633" d="M356 -8q-82 0 -135 32.5t-69 89.5h-1q0 -62 4 -114h-80v693h80v-237q0 -36 -2 -84h1q17 60 69.5 95t130.5 35q106 0 167.5 -66.5t61.5 -179.5q0 -121 -61.5 -192.5t-165.5 -71.5zM336 64q76 0 121.5 51.5t45.5 138.5q0 81 -44 128.5t-120 47.5q-84 0 -134 -50t-50 -134 v-26q0 -71 49 -113.5t132 -42.5z" />
<glyph unicode="c" horiz-adv-x="566" d="M286 -8q-108 0 -172 69t-64 186t65.5 186t176.5 69q99 0 158 -56t59 -150h-74q-1 62 -39.5 98t-102.5 36q-74 0 -118.5 -49.5t-44.5 -133.5t43 -133.5t115 -49.5q68 0 108 35.5t41 96.5h74q0 -93 -61 -148.5t-164 -55.5z" />
<glyph unicode="d" horiz-adv-x="632" d="M285 -8q-107 0 -171 71t-64 187q0 112 65.5 182t176.5 70q76 0 123 -28.5t61 -78.5h1v298h80v-693h-80q3 44 5 132h-2q-15 -65 -64.5 -102.5t-130.5 -37.5zM298 64q82 0 130.5 48t48.5 129v25q0 75 -48 119.5t-130 44.5q-76 0 -122.5 -51t-46.5 -129q0 -83 46 -134.5 t122 -51.5z" />
<glyph unicode="e" horiz-adv-x="567" d="M517 268v-37h-387q4 -79 48.5 -125t117.5 -46q62 0 102 29t45 78h74q-4 -80 -64 -127.5t-158 -47.5q-112 0 -178.5 68t-66.5 183q0 118 66 188.5t177 70.5q106 0 165 -62t59 -172zM443 289v6q0 65 -39 102t-109 37q-66 0 -108.5 -37.5t-53.5 -107.5h310z" />
<glyph unicode="f" horiz-adv-x="392" d="M96 0v424h-83v70h83v49q0 80 45.5 125t123.5 45q48 0 87 -13v-71q-36 12 -77 12q-47 0 -73 -25.5t-26 -72.5v-49h184v-70h-184v-424h-80z" />
<glyph unicode="g" horiz-adv-x="601" d="M402 68q75 0 116 -31.5t41 -87.5q0 -74 -66.5 -117.5t-182.5 -43.5q-123 0 -191.5 38.5t-68.5 108.5q0 38 28 64t73 26v1q-40 30 -40 82q0 57 35 77v2q-72 47 -72 139q0 80 57 128t153 48q81 0 135 -34v1q-19 24 -19 55q0 30 24.5 48t66.5 18q27 0 45 -6v-64q-14 6 -35 6 q-51 0 -51 -44q0 -22 13 -54q32 -43 32 -102q0 -80 -57 -128t-154 -48q-49 0 -91 14q-14 -14 -14 -42q0 -54 63 -54h160zM284 434q-61 0 -96.5 -29t-35.5 -79t35.5 -79t96.5 -29t97 29.5t36 78.5t-36 78.5t-97 29.5zM309 -144q170 0 170 85q0 59 -89 59h-147 q-113 0 -113 -63q0 -40 47.5 -60.5t131.5 -20.5z" />
<glyph unicode="h" horiz-adv-x="640" d="M75 0v693h80v-229q0 -15 -1 -55.5t-1 -48.5h1q45 142 214 142q97 0 152 -52t55 -141v-309h-80v292q0 65 -38.5 101.5t-115.5 36.5q-86 0 -136 -52t-50 -145v-233h-80z" />
<glyph unicode="i" horiz-adv-x="230" d="M72 557v101h86v-101h-86zM75 0v494h80v-494h-80z" />
<glyph unicode="j" horiz-adv-x="230" d="M72 557v101h86v-101h-86zM-10 -208q-47 0 -82 11v70q40 -9 69 -9q98 0 98 123v507h80v-507q0 -89 -40 -142t-125 -53z" />
<glyph unicode="k" horiz-adv-x="615" d="M75 0v693h80v-475h1l310 276h112l-250 -215l264 -279h-114l-210 228l-113 -98v-130h-80z" />
<glyph unicode="l" horiz-adv-x="230" d="M75 0v693h80v-693h-80z" />
<glyph unicode="m" horiz-adv-x="912" d="M70 0v494h80l-2 -131h1q16 65 61.5 102t111.5 37q72 0 118 -35t55 -95h1q13 60 59 95t115 35q83 0 130 -51t47 -138v-313h-80v296q0 63 -30.5 98.5t-88.5 35.5q-69 0 -109 -48t-40 -133v-249h-80v299q0 61 -31 96t-89 35q-69 0 -109 -49t-40 -136v-245h-80z" />
<glyph unicode="n" horiz-adv-x="635" d="M70 0v494h80l-2 -133h1q44 141 214 141q97 0 152 -52t55 -141v-309h-80v292q0 65 -38.5 101.5t-115.5 36.5q-86 0 -136 -49.5t-50 -137.5v-243h-80z" />
<glyph unicode="o" horiz-adv-x="600" d="M300 -8q-115 0 -182.5 69t-67.5 185q0 117 67.5 186.5t182.5 69.5t182.5 -69.5t67.5 -186.5q0 -116 -67.5 -185t-182.5 -69zM300 64q78 0 124 49.5t46 132.5q0 84 -46 134t-124 50t-124 -50t-46 -134q0 -83 46 -132.5t124 -49.5z" />
<glyph unicode="p" horiz-adv-x="633" d="M75 -198v692h80l-2 -127h1q15 63 66.5 99t130.5 36q108 0 170 -66.5t62 -180.5q0 -121 -63 -192t-171 -71q-76 0 -128 32.5t-68 84.5h-1q3 -99 3 -108v-199h-80zM338 64q76 0 120.5 51.5t44.5 138.5q0 81 -44.5 128.5t-122.5 47.5q-81 0 -130.5 -49.5t-50.5 -132.5v-30 q0 -71 49.5 -112.5t133.5 -41.5z" />
<glyph unicode="q" horiz-adv-x="632" d="M477 -198v324h-1q-13 -61 -66 -97.5t-129 -36.5q-105 0 -168 69.5t-63 188.5q0 114 65 183t171 69q79 0 128 -30t63 -82h1v104h79v-692h-80zM297 64q82 0 131 48.5t49 130.5v24q0 74 -48 118.5t-130 44.5q-75 0 -122 -49.5t-47 -130.5q0 -86 45.5 -136t121.5 -50z" />
<glyph unicode="r" horiz-adv-x="549" d="M70 0v494h80l-2 -143h1q40 151 180 151q82 0 126 -51t44 -142q0 -43 -5 -88h-73q4 30 4 71q0 69 -27.5 103.5t-87.5 34.5q-74 0 -117 -58.5t-43 -152.5v-219h-80z" />
<glyph unicode="s" horiz-adv-x="548" d="M268 -8q-218 0 -218 173h74q0 -105 143 -105q151 0 151 84q0 36 -31 51q-25 12 -136 23q-121 10 -160 39q-41 30 -41 92q0 70 59 111.5t158 41.5q210 0 210 -176h-74q-1 108 -133 108q-64 0 -102 -21.5t-38 -58.5q0 -43 32 -56q26 -11 138 -23q108 -11 149 -34 q49 -28 49 -94q0 -74 -59.5 -114.5t-170.5 -40.5z" />
<glyph unicode="t" horiz-adv-x="393" d="M266 -4q-87 0 -129 49.5t-42 135.5v243h-82v70h66q12 0 17.5 7.5t6.5 26.5l4 78h68v-112h179v-70h-179v-238q0 -59 22.5 -89.5t75.5 -30.5q49 0 77 10v-68q-30 -12 -84 -12z" />
<glyph unicode="u" horiz-adv-x="634" d="M273 -8q-96 0 -152 53.5t-56 143.5v305h80v-291q0 -64 40 -101.5t110 -37.5q87 0 138 55t51 152v223h80v-494h-80q4 66 4 145h-1q-16 -72 -70 -112.5t-144 -40.5z" />
<glyph unicode="v" horiz-adv-x="586" d="M245 0l-221 494h94l177 -417h3l178 417h86l-221 -494h-96z" />
<glyph unicode="w" horiz-adv-x="798" d="M171 0l-147 494h87l114 -410h2l138 410h79l133 -410h2l118 410h77l-147 -494h-98l-128 394h-3l-132 -394h-95z" />
<glyph unicode="x" horiz-adv-x="552" d="M24 0l194 253l-186 241h103l146 -194l143 194h95l-187 -242l196 -252h-103l-154 203l-149 -203h-98z" />
<glyph unicode="y" horiz-adv-x="564" d="M153 -208q-41 0 -71 13v67q30 -10 61 -10q41 0 65.5 27t58.5 111h-21l-222 494h94l180 -413h2l159 413h81l-196 -503q-45 -117 -83.5 -158t-107.5 -41z" />
<glyph unicode="z" horiz-adv-x="501" d="M50 0v52l294 370v2h-286v70h393v-52l-294 -371v-1h294v-70h-401z" />
<glyph unicode="{" horiz-adv-x="369" d="M348 -182q-124 0 -182.5 30.5t-58.5 108.5q0 41 29.5 116t29.5 108q0 35 -21 56.5t-55 21.5h-66v50h66q34 0 55 21.5t21 56.5q0 34 -29.5 108t-29.5 116q0 78 58.5 108.5t182.5 30.5v-47q-91 0 -130.5 -20t-39.5 -71q0 -34 28.5 -107t28.5 -110t-23 -67.5t-63 -42.5v-3 q40 -11 63 -41t23 -68t-28.5 -109.5t-28.5 -107.5q0 -51 39.5 -71t130.5 -20v-47z" />
<glyph unicode="|" horiz-adv-x="208" d="M79 -200v940h50v-940h-50z" />
<glyph unicode="}" horiz-adv-x="369" d="M21 -182v47q91 0 130.5 20t39.5 71q0 36 -28.5 107.5t-28.5 109.5t23 68t63 41v3q-40 12 -63 42.5t-23 67.5t28.5 110t28.5 107q0 51 -39.5 71t-130.5 20v47q124 0 182.5 -30.5t58.5 -108.5q0 -42 -29.5 -116t-29.5 -108q0 -35 21 -56.5t55 -21.5h66v-50h-66 q-34 0 -55 -21.5t-21 -56.5q0 -33 29.5 -108t29.5 -116q0 -78 -58.5 -108.5t-182.5 -30.5z" />
<glyph unicode="~" d="M428 172q-71 0 -120 61l-48 58q-23 27 -40 40t-41 13q-63 0 -63 -86v-79h-60v85q0 69 32.5 103.5t87.5 34.5q69 0 120 -61l49 -58q22 -27 39 -40t41 -13q63 0 63 86v79h60v-85q0 -72 -33 -105t-87 -33z" />
<glyph unicode="&#xa1;" horiz-adv-x="206" d="M60 350v114h86v-114h-86zM63 -208v108l24 343h32l24 -343v-108h-80z" />
<glyph unicode="&#xa2;" d="M310 144q78 0 123 37.5t46 100.5h74q0 -96 -65.5 -153t-179.5 -57q-12 0 -34 2l-25 -104h-43l27 110q-86 21 -134 86.5t-48 162.5q0 118 70.5 187.5t191.5 69.5q15 0 41 -2l25 104h43l-27 -112q75 -19 116.5 -71.5t41.5 -129.5h-74q-2 101 -101 131l-87 -361q6 -1 19 -1z M131 329q0 -68 31.5 -114t87.5 -63l87 361q-8 1 -23 1q-85 0 -134 -50t-49 -135z" />
<glyph unicode="&#xa3;" d="M554 224q4 -18 4 -49q0 -67 -37.5 -106.5t-101.5 -39.5q-70 0 -163 57l-5 3q-35 -60 -108 -60q-47 0 -74 22.5t-27 60.5q0 37 24.5 58.5t66.5 21.5q35 0 81 -16q0 44 -35 109h-123v42h98q-59 90 -59 148q0 69 60.5 111.5t165.5 42.5q104 0 159.5 -47t55.5 -129 q0 -35 -4 -59h-74q4 32 4 52q0 52 -35 81.5t-105 29.5q-69 0 -108 -24t-39 -64q0 -28 12 -56t40 -75l6 -11h206v-42h-186q22 -55 22 -97q0 -20 -3 -40q92 -47 139 -47q35 0 54 21.5t19 60.5q0 19 -4 41h74zM138 71q43 0 64 43q-44 18 -70 18q-42 0 -42 -31q0 -14 13 -22 t35 -8z" />
<glyph unicode="&#xa4;" d="M97 55l-36 29l95 109q-57 49 -57 138q0 86 55 135l-93 106l35 30l100 -110q45 25 107 25q61 0 106 -25l99 110l35 -30l-92 -105q56 -51 56 -136q0 -89 -58 -139l94 -108l-35 -29l-101 112q-43 -24 -104 -24q-63 0 -106 24zM303 203q62 0 99 34t37 94q0 59 -37 92.5 t-99 33.5t-99 -33.5t-37 -92.5q0 -60 37 -94t99 -34z" />
<glyph unicode="&#xa5;" d="M564 619l-182 -285h167v-42h-194l-13 -20v-53h207v-42h-207v-138h-80v138h-208v42h208v53l-13 20h-195v42h168l-182 285h97l170 -275h2l167 275h88z" />
<glyph unicode="&#xa6;" horiz-adv-x="208" d="M79 363v377h50v-377h-50zM79 -200v378h50v-378h-50z" />
<glyph unicode="&#xa7;" d="M300 -126q-97 0 -144.5 42.5t-47.5 119.5h74q0 -90 118 -90q59 0 93 19.5t34 57.5q0 43 -38 56q-25 9 -111 25t-112 26q-31 12 -50 39t-19 60q0 38 19.5 64.5t53.5 33.5v2q-14 6 -22 11q-51 32 -51 102t55.5 111t150.5 41q97 0 144.5 -42.5t47.5 -119.5h-74q0 90 -118 90 q-58 0 -92 -19.5t-34 -52.5q0 -46 35 -61q24 -9 111.5 -25.5t113.5 -25.5q70 -26 70 -99q0 -37 -19.5 -63t-53.5 -33v-2q16 -6 22 -11q51 -34 51 -103q0 -70 -56.5 -111.5t-150.5 -41.5zM358 161q31 1 50 18t19 43q0 48 -48 60q-40 10 -135 26q-31 -2 -49 -19t-18 -43 q0 -48 47 -60q28 -7 134 -25z" />
<glyph unicode="&#xa9;" horiz-adv-x="806" d="M403 -126q-152 0 -260.5 112t-108.5 287t108.5 287t260.5 112t260.5 -112t108.5 -287t-108.5 -287t-260.5 -112zM403 -74q131 0 224 96.5t93 250.5t-93 250.5t-224 96.5t-223.5 -96.5t-92.5 -250.5t92.5 -250.5t223.5 -96.5zM410 61q-89 0 -139.5 58.5t-50.5 158.5 q0 101 54 158.5t131 57.5q81 0 125.5 -43.5t44.5 -113.5h-71q-4 42 -30 66.5t-69 24.5q-52 0 -82 -42t-30 -108q0 -67 32 -108.5t85 -41.5q86 0 95 86h71q-2 -68 -47 -110.5t-119 -42.5z" />
<glyph unicode="&#xaa;" horiz-adv-x="384" d="M33 388q0 82 119 82h124v24q0 68 -92 68q-86 0 -86 -53q0 -8 1 -16h-55q-1 8 -1 18q0 97 143 97q150 0 150 -118v-184h-60q2 28 2 64h-1q-19 -69 -123 -69q-121 0 -121 87zM90 391q0 -44 73 -44q58 0 85.5 23.5t27.5 56.5v5h-121q-65 0 -65 -41zM33 187v52h303v-52h-303z " />
<glyph unicode="&#xab;" horiz-adv-x="606" d="M224 58l-155 222l155 222h72l-156 -222l156 -222h-72zM429 58l-155 222l155 222h72l-156 -222l156 -222h-72z" />
<glyph unicode="&#xac;" d="M481 82v172h-411v58h470v-230h-59z" />
<glyph unicode="&#xad;" horiz-adv-x="294" d="M36 254v58h222v-58h-222z" />
<glyph unicode="&#xae;" horiz-adv-x="806" d="M403 -126q-152 0 -260.5 112t-108.5 287t108.5 287t260.5 112t260.5 -112t108.5 -287t-108.5 -287t-260.5 -112zM403 -74q131 0 224 96.5t93 250.5t-93 250.5t-224 96.5t-223.5 -96.5t-92.5 -250.5t92.5 -250.5t223.5 -96.5zM260 71v413h145q70 0 107 -30.5t37 -83.5 q0 -69 -48 -93v-2q48 -19 48 -79v-125h-73v121q0 25 -11.5 37t-39.5 12h-92v-170h-73zM333 301h77q36 0 51 14.5t15 44.5q0 29 -15.5 43.5t-55.5 14.5h-72v-117z" />
<glyph unicode="&#xb0;" horiz-adv-x="431" d="M215 313q-86 0 -132.5 49t-46.5 130q0 80 47 130t132 50q84 0 132 -50.5t48 -129.5q0 -80 -48 -129.5t-132 -49.5zM215 372q54 0 85.5 33t31.5 87q0 53 -31.5 86.5t-85.5 33.5q-55 0 -86 -33.5t-31 -86.5q0 -54 30.5 -87t86.5 -33z" />
<glyph unicode="&#xb1;" d="M272 166v183h-202v58h202v183h60v-183h202v-58h-202v-183h-60zM70 48v58h464v-58h-464z" />
<glyph unicode="&#xb5;" d="M43 -198v692h80v-270q0 -159 140 -159q79 0 127 52.5t48 147.5v229h80v-328q0 -55 12.5 -78.5t40.5 -23.5q12 0 21 3v-69q-12 -6 -40 -6q-97 0 -108 130h-1q-17 -65 -64.5 -97t-115.5 -32q-110 0 -139 73h-1v-264h-80z" />
<glyph unicode="&#xb6;" d="M327 -96v276h-75q-90 0 -140 51.5t-50 140.5q0 96 57.5 152t161.5 56h267v-676h-62v616h-97v-616h-62zM267 240h60v280h-44q-72 0 -110.5 -39t-38.5 -106q0 -63 34 -99t99 -36z" />
<glyph unicode="&#xb7;" horiz-adv-x="271" d="M92 250v114h86v-114h-86z" />
<glyph unicode="&#xba;" horiz-adv-x="393" d="M197 300q-74 0 -118.5 42t-44.5 112t44.5 112t118.5 42t118 -41.5t44 -112.5t-44 -112.5t-118 -41.5zM197 350q48 0 75 28t27 76t-27 76t-75 28t-75.5 -28t-27.5 -76t27.5 -76t75.5 -28zM34 187v52h325v-52h-325z" />
<glyph unicode="&#xbb;" horiz-adv-x="606" d="M105 58l156 222l-156 222h73l155 -222l-155 -222h-73zM310 58l156 222l-156 222h72l156 -222l-156 -222h-72z" />
<glyph unicode="&#xbc;" horiz-adv-x="755" d="M164 -49l-38 19l332 736l38 -18zM116 264v244h-92v45l47 1q37 0 45.5 16.5t9.5 87.5h52v-394h-62zM596 0v89h-229v51l220 254h71v-251h65v-54h-65v-89h-62zM434 143h162v186h-2l-160 -185v-1z" />
<glyph unicode="&#xbd;" horiz-adv-x="769" d="M164 -49l-38 19l332 736l38 -18zM116 264v244h-92v45l47 1q37 0 45.5 16.5t9.5 87.5h52v-394h-62zM410 0q0 64 21 91.5t105 65.5q76 34 98 57t22 59q0 32 -24 52.5t-65 20.5q-46 0 -72.5 -25t-26.5 -67q0 -22 4 -46h-56q-4 20 -4 48q0 66 42.5 105t115.5 39 q68 0 108 -34.5t40 -89.5q0 -49 -30.5 -83t-114.5 -70q-61 -26 -76 -38.5t-16 -30.5h243v-54h-314z" />
<glyph unicode="&#xbe;" horiz-adv-x="919" d="M328 -49l-38 19l332 736l38 -18zM203 259q-77 0 -120.5 32.5t-43.5 88.5q0 12 2 30h55q-1 -11 -1 -23q0 -34 27.5 -54t78.5 -20q53 0 82.5 20.5t29.5 55.5q0 26 -20 41t-54 15h-68v41h56q32 0 51 16t19 43q0 30 -24.5 47.5t-68.5 17.5q-47 0 -73.5 -20t-26.5 -54 q0 -11 2 -25h-54q-3 18 -3 32q0 56 42.5 88.5t115.5 32.5q69 0 108.5 -30t39.5 -80q0 -31 -16 -52.5t-43 -26.5v-2q36 -4 57.5 -28.5t21.5 -59.5q0 -58 -46 -92t-126 -34zM760 0v89h-229v51l220 254h71v-251h65v-54h-65v-89h-62zM598 143h162v186h-2l-160 -185v-1z" />
<glyph unicode="&#xbf;" horiz-adv-x="513" d="M346 350v114h86v-114h-86zM254 -208q-95 0 -155.5 58t-60.5 161t54.5 171t147.5 68q41 0 75.5 -18t45.5 -45h1v102h58v-167h-60q-10 29 -41.5 47.5t-76.5 18.5q-60 0 -97 -50t-37 -125q0 -73 42 -114.5t104 -41.5t96.5 34.5t34.5 95.5q0 17 -1 27h69q2 -12 2 -35 q0 -87 -54 -137t-147 -50z" />
<glyph unicode="&#xc0;" horiz-adv-x="706" d="M412 709h-66l-108 140h89zM583 0l-64 160h-341l-65 -160h-88l278 658h100l278 -658h-98zM203 222h291l-143 359h-2z" />
<glyph unicode="&#xc1;" horiz-adv-x="706" d="M483 849l-107 -140h-67l85 140h89zM583 0l-64 160h-341l-65 -160h-88l278 658h100l278 -658h-98zM203 222h291l-143 359h-2z" />
<glyph unicode="&#xc2;" horiz-adv-x="706" d="M354 787h-2l-141 -79v69l141 79h2l141 -79v-69zM583 0l-64 160h-341l-65 -160h-88l278 658h100l278 -658h-98zM203 222h291l-143 359h-2z" />
<glyph unicode="&#xc3;" horiz-adv-x="706" d="M280 807q-39 0 -48 -88h-57q6 71 34 105.5t70 34.5q48 0 82 -40l14 -16q27 -32 50 -32q38 0 47 88h57q-6 -71 -33.5 -105.5t-70.5 -34.5q-48 0 -82 40l-14 16q-11 13 -16 18t-13.5 9.5t-19.5 4.5zM583 0l-64 160h-341l-65 -160h-88l278 658h100l278 -658h-98zM203 222 h291l-143 359h-2z" />
<glyph unicode="&#xc4;" horiz-adv-x="706" d="M306 822v-101h-76v101h76zM476 822v-101h-76v101h76zM583 0l-64 160h-341l-65 -160h-88l278 658h100l278 -658h-98zM203 222h291l-143 359h-2z" />
<glyph unicode="&#xc5;" horiz-adv-x="706" d="M583 0l-64 160h-341l-65 -160h-88l262 619q-73 25 -73 102q0 50 37 81.5t102 31.5q67 0 103 -31t36 -82q0 -77 -73 -102l262 -619h-98zM270 721q0 -29 21.5 -46t61.5 -17t61.5 17t21.5 46q0 30 -21.5 46.5t-61.5 16.5q-39 0 -61 -17t-22 -46zM203 222h291l-143 359h-2z " />
<glyph unicode="&#xc6;" horiz-adv-x="848" d="M25 0l316 658h463v-76h-332v-220h265v-62h-265v-224h341v-76h-425v160h-197l-73 -160h-93zM220 222h168v361h-3z" />
<glyph unicode="&#xc7;" horiz-adv-x="728" d="M595 256h78v-16q0 -106 -77 -175t-197 -75l-18 -47l1 -1q19 12 46 12q39 0 59 -19.5t20 -53.5q0 -43 -32 -71t-95 -28q-121 0 -130 87h61q7 -42 69 -42q70 0 70 52q0 36 -60 36q-41 0 -73 -8l32 84q-133 11 -216 102t-83 235q0 154 92 247t239 93q126 0 207.5 -71.5 t81.5 -184.5q0 -11 -1 -24h-77v18q0 82 -60 134t-151 52q-109 0 -178 -72.5t-69 -191.5q0 -118 70.5 -190t176.5 -72q92 0 153 50t61 128v12z" />
<glyph unicode="&#xc8;" horiz-adv-x="560" d="M295 709l-108 140h89l85 -140h-66zM80 0v658h436v-76h-352v-220h285v-62h-285v-224h361v-76h-445z" />
<glyph unicode="&#xc9;" horiz-adv-x="560" d="M258 709l85 140h89l-107 -140h-67zM80 0v658h436v-76h-352v-220h285v-62h-285v-224h361v-76h-445z" />
<glyph unicode="&#xca;" horiz-adv-x="560" d="M160 708v69l141 79h2l141 -79v-69l-141 79h-2zM80 0v658h436v-76h-352v-220h285v-62h-285v-224h361v-76h-445z" />
<glyph unicode="&#xcb;" horiz-adv-x="560" d="M179 721v101h76v-101h-76zM349 721v101h76v-101h-76zM80 0v658h436v-76h-352v-220h285v-62h-285v-224h361v-76h-445z" />
<glyph unicode="&#xcc;" horiz-adv-x="252" d="M119 709l-108 140h89l85 -140h-66zM84 0v658h84v-658h-84z" />
<glyph unicode="&#xcd;" horiz-adv-x="252" d="M82 709l85 140h89l-107 -140h-67zM84 0v658h84v-658h-84z" />
<glyph unicode="&#xce;" horiz-adv-x="252" d="M-16 708v69l141 79h2l141 -79v-69l-141 79h-2zM84 0v658h84v-658h-84z" />
<glyph unicode="&#xcf;" horiz-adv-x="252" d="M3 721v101h76v-101h-76zM173 721v101h76v-101h-76zM84 0v658h84v-658h-84z" />
<glyph unicode="&#xd0;" horiz-adv-x="698" d="M320 658q152 0 240 -87.5t88 -240.5q0 -154 -82 -242t-225 -88h-261v303h-85v52h85v303h240zM339 76q105 0 165 67t60 187q0 118 -64.5 185t-177.5 67h-158v-227h164v-52h-164v-227h175z" />
<glyph unicode="&#xd1;" horiz-adv-x="734" d="M189 719q6 71 34 105.5t70 34.5q48 0 82 -40l14 -16q27 -32 50 -32q38 0 47 88h57q-6 -71 -33.5 -105.5t-70.5 -34.5q-48 0 -82 40l-14 16q-11 13 -16 18t-13.5 9.5t-19.5 4.5q-39 0 -48 -88h-57zM80 0v658h135l357 -546h2v546h80v-658h-99l-393 597h-2v-597h-80z" />
<glyph unicode="&#xd2;" horiz-adv-x="764" d="M375 709l-108 140h89l85 -140h-66zM382 -10q-143 0 -237.5 93.5t-94.5 248.5q0 152 94.5 244t237.5 92t237.5 -92t94.5 -244q0 -155 -94.5 -248.5t-237.5 -93.5zM382 66q104 0 176 73t72 193q0 117 -71.5 188.5t-176.5 71.5t-176.5 -71.5t-71.5 -188.5q0 -120 72 -193 t176 -73z" />
<glyph unicode="&#xd3;" horiz-adv-x="764" d="M338 709l85 140h89l-107 -140h-67zM382 -10q-143 0 -237.5 93.5t-94.5 248.5q0 152 94.5 244t237.5 92t237.5 -92t94.5 -244q0 -155 -94.5 -248.5t-237.5 -93.5zM382 66q104 0 176 73t72 193q0 117 -71.5 188.5t-176.5 71.5t-176.5 -71.5t-71.5 -188.5q0 -120 72 -193 t176 -73z" />
<glyph unicode="&#xd4;" horiz-adv-x="764" d="M240 708v69l141 79h2l141 -79v-69l-141 79h-2zM382 -10q-143 0 -237.5 93.5t-94.5 248.5q0 152 94.5 244t237.5 92t237.5 -92t94.5 -244q0 -155 -94.5 -248.5t-237.5 -93.5zM382 66q104 0 176 73t72 193q0 117 -71.5 188.5t-176.5 71.5t-176.5 -71.5t-71.5 -188.5 q0 -120 72 -193t176 -73z" />
<glyph unicode="&#xd5;" horiz-adv-x="764" d="M204 719q6 71 34 105.5t70 34.5q48 0 82 -40l14 -16q27 -32 50 -32q38 0 47 88h57q-6 -71 -33.5 -105.5t-70.5 -34.5q-48 0 -82 40l-14 16q-11 13 -16 18t-13.5 9.5t-19.5 4.5q-39 0 -48 -88h-57zM382 -10q-143 0 -237.5 93.5t-94.5 248.5q0 152 94.5 244t237.5 92 t237.5 -92t94.5 -244q0 -155 -94.5 -248.5t-237.5 -93.5zM382 66q104 0 176 73t72 193q0 117 -71.5 188.5t-176.5 71.5t-176.5 -71.5t-71.5 -188.5q0 -120 72 -193t176 -73z" />
<glyph unicode="&#xd6;" horiz-adv-x="764" d="M259 721v101h76v-101h-76zM429 721v101h76v-101h-76zM382 -10q-143 0 -237.5 93.5t-94.5 248.5q0 152 94.5 244t237.5 92t237.5 -92t94.5 -244q0 -155 -94.5 -248.5t-237.5 -93.5zM382 66q104 0 176 73t72 193q0 117 -71.5 188.5t-176.5 71.5t-176.5 -71.5t-71.5 -188.5 q0 -120 72 -193t176 -73z" />
<glyph unicode="&#xd7;" d="M103 94l-36 46l187 143l-187 143l36 46l199 -152l199 152l36 -46l-187 -143l187 -143l-36 -46l-199 152z" />
<glyph unicode="&#xd8;" horiz-adv-x="764" d="M624 572q90 -93 90 -240q0 -155 -94.5 -248.5t-237.5 -93.5q-123 0 -210 69l-39 -45l-30 28l39 44q-92 95 -92 246q0 152 94.5 244t237.5 92q122 0 210 -68l38 43l31 -29zM134 332q0 -110 63 -183l341 390q-65 53 -156 53q-105 0 -176.5 -71.5t-71.5 -188.5zM382 66 q104 0 176 73t72 193q0 106 -61 177l-343 -389q66 -54 156 -54z" />
<glyph unicode="&#xd9;" horiz-adv-x="706" d="M350 709l-108 140h89l85 -140h-66zM354 -10q-129 0 -204 69t-75 183v416h84v-416q0 -81 52.5 -128.5t145.5 -47.5t145.5 47.5t52.5 128.5v416h76v-416q0 -114 -74.5 -183t-202.5 -69z" />
<glyph unicode="&#xda;" horiz-adv-x="706" d="M313 709l85 140h89l-107 -140h-67zM354 -10q-129 0 -204 69t-75 183v416h84v-416q0 -81 52.5 -128.5t145.5 -47.5t145.5 47.5t52.5 128.5v416h76v-416q0 -114 -74.5 -183t-202.5 -69z" />
<glyph unicode="&#xdb;" horiz-adv-x="706" d="M215 708v69l141 79h2l141 -79v-69l-141 79h-2zM354 -10q-129 0 -204 69t-75 183v416h84v-416q0 -81 52.5 -128.5t145.5 -47.5t145.5 47.5t52.5 128.5v416h76v-416q0 -114 -74.5 -183t-202.5 -69z" />
<glyph unicode="&#xdc;" horiz-adv-x="706" d="M234 721v101h76v-101h-76zM404 721v101h76v-101h-76zM354 -10q-129 0 -204 69t-75 183v416h84v-416q0 -81 52.5 -128.5t145.5 -47.5t145.5 47.5t52.5 128.5v416h76v-416q0 -114 -74.5 -183t-202.5 -69z" />
<glyph unicode="&#xdd;" horiz-adv-x="657" d="M281 709l85 140h89l-107 -140h-67zM286 0v269l-264 389h103l208 -320h2l208 320h92l-265 -389v-269h-84z" />
<glyph unicode="&#xde;" horiz-adv-x="624" d="M80 0v658h84v-99h178q117 0 179.5 -60t62.5 -167q0 -106 -59 -165t-167 -59h-194v-108h-84zM164 172h187q74 0 112.5 39.5t38.5 115.5q0 156 -163 156h-175v-311z" />
<glyph unicode="&#xdf;" horiz-adv-x="682" d="M403 -8q-72 0 -138 11v71q68 -11 138 -11q68 0 108.5 27t40.5 75q0 42 -28 59q-22 14 -119 30q-96 17 -125 39q-32 25 -32 71q0 42 25 67q20 20 88 53q39 20 52.5 35.5t13.5 47.5q0 36 -31.5 57.5t-83.5 21.5q-74 0 -115.5 -41t-41.5 -122v-483h-80v483q0 110 64 172.5 t173 62.5q89 0 142 -40.5t53 -109.5q0 -89 -77 -125q-78 -36 -84 -41q-18 -14 -18 -33q0 -20 21 -30q15 -7 105 -23q96 -16 132 -44q46 -33 46 -109q0 -79 -61 -125t-168 -46z" />
<glyph unicode="&#xe0;" horiz-adv-x="577" d="M277 545l-108 140h89l85 -140h-66zM233 -8q-84 0 -133.5 40t-49.5 110q0 57 44 93.5t137 36.5h201v36q0 126 -151 126q-141 0 -141 -101q0 -10 1 -18h-74q-2 14 -2 30q0 73 58.5 115t159.5 42q109 0 169 -52.5t60 -148.5v-301h-80q3 69 4 117h-1q-28 -125 -202 -125z M249 60q84 0 133.5 40t49.5 107v7h-194q-60 0 -86.5 -17.5t-26.5 -54.5q0 -38 33 -60t91 -22z" />
<glyph unicode="&#xe1;" horiz-adv-x="577" d="M240 545l85 140h89l-107 -140h-67zM233 -8q-84 0 -133.5 40t-49.5 110q0 57 44 93.5t137 36.5h201v36q0 126 -151 126q-141 0 -141 -101q0 -10 1 -18h-74q-2 14 -2 30q0 73 58.5 115t159.5 42q109 0 169 -52.5t60 -148.5v-301h-80q3 69 4 117h-1q-28 -125 -202 -125z M249 60q84 0 133.5 40t49.5 107v7h-194q-60 0 -86.5 -17.5t-26.5 -54.5q0 -38 33 -60t91 -22z" />
<glyph unicode="&#xe2;" horiz-adv-x="577" d="M142 544v69l141 79h2l141 -79v-69l-141 79h-2zM233 -8q-84 0 -133.5 40t-49.5 110q0 57 44 93.5t137 36.5h201v36q0 126 -151 126q-141 0 -141 -101q0 -10 1 -18h-74q-2 14 -2 30q0 73 58.5 115t159.5 42q109 0 169 -52.5t60 -148.5v-301h-80q3 69 4 117h-1 q-28 -125 -202 -125zM249 60q84 0 133.5 40t49.5 107v7h-194q-60 0 -86.5 -17.5t-26.5 -54.5q0 -38 33 -60t91 -22z" />
<glyph unicode="&#xe3;" horiz-adv-x="577" d="M106 555q6 71 34 105.5t70 34.5q48 0 82 -40l14 -16q27 -32 50 -32q38 0 47 88h57q-6 -71 -33.5 -105.5t-70.5 -34.5q-48 0 -82 40l-14 16q-11 13 -16 18t-13.5 9.5t-19.5 4.5q-39 0 -48 -88h-57zM233 -8q-84 0 -133.5 40t-49.5 110q0 57 44 93.5t137 36.5h201v36 q0 126 -151 126q-141 0 -141 -101q0 -10 1 -18h-74q-2 14 -2 30q0 73 58.5 115t159.5 42q109 0 169 -52.5t60 -148.5v-301h-80q3 69 4 117h-1q-28 -125 -202 -125zM249 60q84 0 133.5 40t49.5 107v7h-194q-60 0 -86.5 -17.5t-26.5 -54.5q0 -38 33 -60t91 -22z" />
<glyph unicode="&#xe4;" horiz-adv-x="577" d="M161 557v101h76v-101h-76zM331 557v101h76v-101h-76zM233 -8q-84 0 -133.5 40t-49.5 110q0 57 44 93.5t137 36.5h201v36q0 126 -151 126q-141 0 -141 -101q0 -10 1 -18h-74q-2 14 -2 30q0 73 58.5 115t159.5 42q109 0 169 -52.5t60 -148.5v-301h-80q3 69 4 117h-1 q-28 -125 -202 -125zM249 60q84 0 133.5 40t49.5 107v7h-194q-60 0 -86.5 -17.5t-26.5 -54.5q0 -38 33 -60t91 -22z" />
<glyph unicode="&#xe5;" horiz-adv-x="577" d="M284 545q-68 0 -103.5 30.5t-35.5 81.5q0 50 37 81.5t102 31.5q67 0 103 -31t36 -82t-35.5 -81.5t-103.5 -30.5zM284 594q40 0 61.5 17t21.5 46q0 30 -21.5 46.5t-61.5 16.5q-39 0 -61 -17t-22 -46t21.5 -46t61.5 -17zM233 -8q-84 0 -133.5 40t-49.5 110q0 57 44 93.5 t137 36.5h201v36q0 126 -151 126q-141 0 -141 -101q0 -10 1 -18h-74q-2 14 -2 30q0 73 58.5 115t159.5 42q109 0 169 -52.5t60 -148.5v-301h-80q3 69 4 117h-1q-28 -125 -202 -125zM249 60q84 0 133.5 40t49.5 107v7h-194q-60 0 -86.5 -17.5t-26.5 -54.5q0 -38 33 -60 t91 -22z" />
<glyph unicode="&#xe6;" horiz-adv-x="950" d="M900 268v-47h-386q6 -74 50.5 -117.5t114.5 -43.5q62 0 102 29t45 78h74q-4 -80 -64.5 -127.5t-158.5 -47.5q-77 0 -134.5 34.5t-81.5 91.5h-3q-30 -126 -217 -126q-89 0 -140 40t-51 108q0 62 44 100.5t137 38.5h201v29q0 126 -151 126q-67 0 -104 -24.5t-37 -68.5 q0 -15 1 -26h-74q-2 16 -2 30q0 73 59 115t159 42q164 0 195 -103h1q25 47 75.5 75t121.5 28q106 0 165 -62t59 -172zM826 279v15q0 66 -39 103t-109 37q-69 0 -112 -40.5t-51 -114.5h311zM432 210v11h-194q-60 0 -86.5 -19t-26.5 -58t33 -61.5t91 -22.5q84 0 133.5 40 t49.5 110z" />
<glyph unicode="&#xe7;" horiz-adv-x="566" d="M511 196q0 -88 -55.5 -143t-150.5 -60l-19 -50l1 -1q19 12 46 12q39 0 59 -19.5t20 -53.5q0 -43 -32 -71t-95 -28q-121 0 -130 87h61q7 -42 69 -42q70 0 70 52q0 36 -60 36q-41 0 -73 -8l33 87q-95 10 -150 77.5t-55 175.5q0 117 65.5 186t176.5 69q99 0 158 -56t59 -150 h-74q-1 62 -39.5 98t-102.5 36q-74 0 -118.5 -49.5t-44.5 -133.5t43 -133.5t115 -49.5q68 0 108 35.5t41 96.5h74z" />
<glyph unicode="&#xe8;" horiz-adv-x="567" d="M346 545h-66l-108 140h89zM517 268v-37h-387q4 -79 48.5 -125t117.5 -46q62 0 102 29t45 78h74q-4 -80 -64 -127.5t-158 -47.5q-112 0 -178.5 68t-66.5 183q0 118 66 188.5t177 70.5q106 0 165 -62t59 -172zM443 289v6q0 65 -39 102t-109 37q-66 0 -108.5 -37.5 t-53.5 -107.5h310z" />
<glyph unicode="&#xe9;" horiz-adv-x="567" d="M417 685l-107 -140h-67l85 140h89zM517 268v-37h-387q4 -79 48.5 -125t117.5 -46q62 0 102 29t45 78h74q-4 -80 -64 -127.5t-158 -47.5q-112 0 -178.5 68t-66.5 183q0 118 66 188.5t177 70.5q106 0 165 -62t59 -172zM443 289v6q0 65 -39 102t-109 37q-66 0 -108.5 -37.5 t-53.5 -107.5h310z" />
<glyph unicode="&#xea;" horiz-adv-x="567" d="M288 623h-2l-141 -79v69l141 79h2l141 -79v-69zM517 268v-37h-387q4 -79 48.5 -125t117.5 -46q62 0 102 29t45 78h74q-4 -80 -64 -127.5t-158 -47.5q-112 0 -178.5 68t-66.5 183q0 118 66 188.5t177 70.5q106 0 165 -62t59 -172zM443 289v6q0 65 -39 102t-109 37 q-66 0 -108.5 -37.5t-53.5 -107.5h310z" />
<glyph unicode="&#xeb;" horiz-adv-x="567" d="M240 658v-101h-76v101h76zM410 658v-101h-76v101h76zM517 268v-37h-387q4 -79 48.5 -125t117.5 -46q62 0 102 29t45 78h74q-4 -80 -64 -127.5t-158 -47.5q-112 0 -178.5 68t-66.5 183q0 118 66 188.5t177 70.5q106 0 165 -62t59 -172zM443 289v6q0 65 -39 102t-109 37 q-66 0 -108.5 -37.5t-53.5 -107.5h310z" />
<glyph unicode="&#xec;" horiz-adv-x="230" d="M108 545l-108 140h89l85 -140h-66zM75 0v494h80v-494h-80z" />
<glyph unicode="&#xed;" horiz-adv-x="230" d="M71 545l85 140h89l-107 -140h-67zM75 0v494h80v-494h-80z" />
<glyph unicode="&#xee;" horiz-adv-x="230" d="M-27 544v69l141 79h2l141 -79v-69l-141 79h-2zM75 0v494h80v-494h-80z" />
<glyph unicode="&#xef;" horiz-adv-x="230" d="M-8 557v101h76v-101h-76zM162 557v101h76v-101h-76zM75 0v494h80v-494h-80z" />
<glyph unicode="&#xf0;" horiz-adv-x="605" d="M383 622q167 -116 167 -336q0 -134 -67.5 -214t-182.5 -80t-182.5 69t-67.5 185q0 117 63.5 186.5t172.5 69.5q99 0 157 -74q-41 101 -144 161l-191 -76l-15 37l158 63q-63 26 -140 41l31 53q113 -15 198 -59l150 59l15 -37zM300 64q78 0 124 57.5t46 154.5v13 q-13 64 -62.5 102.5t-118.5 38.5q-73 0 -116 -50t-43 -134q0 -83 46 -132.5t124 -49.5z" />
<glyph unicode="&#xf1;" horiz-adv-x="635" d="M142 555q6 71 34 105.5t70 34.5q48 0 82 -40l14 -16q27 -32 50 -32q38 0 47 88h57q-6 -71 -33.5 -105.5t-70.5 -34.5q-48 0 -82 40l-14 16q-11 13 -16 18t-13.5 9.5t-19.5 4.5q-39 0 -48 -88h-57zM70 0v494h80l-2 -133h1q44 141 214 141q97 0 152 -52t55 -141v-309h-80 v292q0 65 -38.5 101.5t-115.5 36.5q-86 0 -136 -49.5t-50 -137.5v-243h-80z" />
<glyph unicode="&#xf2;" horiz-adv-x="600" d="M293 545l-108 140h89l85 -140h-66zM300 -8q-115 0 -182.5 69t-67.5 185q0 117 67.5 186.5t182.5 69.5t182.5 -69.5t67.5 -186.5q0 -116 -67.5 -185t-182.5 -69zM300 64q78 0 124 49.5t46 132.5q0 84 -46 134t-124 50t-124 -50t-46 -134q0 -83 46 -132.5t124 -49.5z" />
<glyph unicode="&#xf3;" horiz-adv-x="600" d="M256 545l85 140h89l-107 -140h-67zM300 -8q-115 0 -182.5 69t-67.5 185q0 117 67.5 186.5t182.5 69.5t182.5 -69.5t67.5 -186.5q0 -116 -67.5 -185t-182.5 -69zM300 64q78 0 124 49.5t46 132.5q0 84 -46 134t-124 50t-124 -50t-46 -134q0 -83 46 -132.5t124 -49.5z" />
<glyph unicode="&#xf4;" horiz-adv-x="600" d="M158 544v69l141 79h2l141 -79v-69l-141 79h-2zM300 -8q-115 0 -182.5 69t-67.5 185q0 117 67.5 186.5t182.5 69.5t182.5 -69.5t67.5 -186.5q0 -116 -67.5 -185t-182.5 -69zM300 64q78 0 124 49.5t46 132.5q0 84 -46 134t-124 50t-124 -50t-46 -134q0 -83 46 -132.5 t124 -49.5z" />
<glyph unicode="&#xf5;" horiz-adv-x="600" d="M122 555q6 71 34 105.5t70 34.5q48 0 82 -40l14 -16q27 -32 50 -32q38 0 47 88h57q-6 -71 -33.5 -105.5t-70.5 -34.5q-48 0 -82 40l-14 16q-11 13 -16 18t-13.5 9.5t-19.5 4.5q-39 0 -48 -88h-57zM300 -8q-115 0 -182.5 69t-67.5 185q0 117 67.5 186.5t182.5 69.5 t182.5 -69.5t67.5 -186.5q0 -116 -67.5 -185t-182.5 -69zM300 64q78 0 124 49.5t46 132.5q0 84 -46 134t-124 50t-124 -50t-46 -134q0 -83 46 -132.5t124 -49.5z" />
<glyph unicode="&#xf6;" horiz-adv-x="600" d="M177 557v101h76v-101h-76zM347 557v101h76v-101h-76zM300 -8q-115 0 -182.5 69t-67.5 185q0 117 67.5 186.5t182.5 69.5t182.5 -69.5t67.5 -186.5q0 -116 -67.5 -185t-182.5 -69zM300 64q78 0 124 49.5t46 132.5q0 84 -46 134t-124 50t-124 -50t-46 -134q0 -83 46 -132.5 t124 -49.5z" />
<glyph unicode="&#xf7;" d="M261 400v111h81v-111h-81zM70 254v58h464v-58h-464zM261 55v111h81v-111h-81z" />
<glyph unicode="&#xf8;" horiz-adv-x="600" d="M491 423q59 -68 59 -177q0 -116 -67.5 -185t-182.5 -69q-99 0 -163 52l-40 -43l-30 29l40 43q-57 66 -57 173q0 117 67.5 186.5t182.5 69.5q98 0 161 -51l39 42l31 -28zM130 246q0 -69 32 -115l246 264q-43 35 -108 35q-78 0 -124 -50t-46 -134zM300 64q78 0 124 49.5 t46 132.5q0 71 -33 118l-247 -264q44 -36 110 -36z" />
<glyph unicode="&#xf9;" horiz-adv-x="634" d="M310 545l-108 140h89l85 -140h-66zM273 -8q-96 0 -152 53.5t-56 143.5v305h80v-291q0 -64 40 -101.5t110 -37.5q87 0 138 55t51 152v223h80v-494h-80q4 66 4 145h-1q-16 -72 -70 -112.5t-144 -40.5z" />
<glyph unicode="&#xfa;" horiz-adv-x="634" d="M273 545l85 140h89l-107 -140h-67zM273 -8q-96 0 -152 53.5t-56 143.5v305h80v-291q0 -64 40 -101.5t110 -37.5q87 0 138 55t51 152v223h80v-494h-80q4 66 4 145h-1q-16 -72 -70 -112.5t-144 -40.5z" />
<glyph unicode="&#xfb;" horiz-adv-x="634" d="M175 544v69l141 79h2l141 -79v-69l-141 79h-2zM273 -8q-96 0 -152 53.5t-56 143.5v305h80v-291q0 -64 40 -101.5t110 -37.5q87 0 138 55t51 152v223h80v-494h-80q4 66 4 145h-1q-16 -72 -70 -112.5t-144 -40.5z" />
<glyph unicode="&#xfc;" horiz-adv-x="634" d="M194 557v101h76v-101h-76zM364 557v101h76v-101h-76zM273 -8q-96 0 -152 53.5t-56 143.5v305h80v-291q0 -64 40 -101.5t110 -37.5q87 0 138 55t51 152v223h80v-494h-80q4 66 4 145h-1q-16 -72 -70 -112.5t-144 -40.5z" />
<glyph unicode="&#xfd;" horiz-adv-x="564" d="M238 545l85 140h89l-107 -140h-67zM153 -208q-41 0 -71 13v67q30 -10 61 -10q41 0 65.5 27t58.5 111h-21l-222 494h94l180 -413h2l159 413h81l-196 -503q-45 -117 -83.5 -158t-107.5 -41z" />
<glyph unicode="&#xfe;" horiz-adv-x="633" d="M75 -198v891h80v-239q0 -14 -1 -48t-1 -35h1q15 60 67 95.5t133 35.5q105 0 167 -66.5t62 -179.5q0 -121 -63 -192.5t-171 -71.5q-76 0 -128 32.5t-68 84.5h-1q3 -99 3 -108v-199h-80zM338 64q76 0 120.5 51.5t44.5 138.5q0 80 -44.5 128t-119.5 48q-81 0 -132.5 -50.5 t-51.5 -134.5v-27q0 -71 49.5 -112.5t133.5 -41.5z" />
<glyph unicode="&#xff;" horiz-adv-x="564" d="M159 557v101h76v-101h-76zM329 557v101h76v-101h-76zM153 -208q-41 0 -71 13v67q30 -10 61 -10q41 0 65.5 27t58.5 111h-21l-222 494h94l180 -413h2l159 413h81l-196 -503q-45 -117 -83.5 -158t-107.5 -41z" />
<glyph unicode="&#x152;" horiz-adv-x="926" d="M385 -10q-145 0 -240 93.5t-95 248.5q0 152 95 244t240 92q55 0 87 -10h411v-76h-329v-220h261v-62h-261v-224h337v-76h-420q-35 -10 -86 -10zM385 66q52 0 85 15v496q-34 16 -85 16q-107 0 -179 -71.5t-72 -189.5q0 -120 72 -193t179 -73z" />
<glyph unicode="&#x153;" horiz-adv-x="987" d="M937 268v-37h-387q4 -79 48.5 -125t117.5 -46q62 0 102 29t45 78h74q-4 -80 -64 -127.5t-158 -47.5q-71 0 -126.5 32t-78.5 84h-2q-25 -53 -78.5 -84.5t-129.5 -31.5q-115 0 -182.5 69t-67.5 185q0 117 67.5 186.5t182.5 69.5q78 0 131.5 -32.5t77.5 -89.5h2 q55 122 202 122q106 0 165 -62t59 -172zM863 289v6q0 65 -39 102t-109 37q-66 0 -108.5 -37.5t-53.5 -107.5h310zM300 64q78 0 124 49.5t46 132.5q0 84 -46 134t-124 50t-124 -50t-46 -134q0 -83 46 -132.5t124 -49.5z" />
<glyph unicode="&#x178;" horiz-adv-x="657" d="M202 721v101h76v-101h-76zM372 721v101h76v-101h-76zM286 0v269l-264 389h103l208 -320h2l208 320h92l-265 -389v-269h-84z" />
<glyph unicode="&#x2000;" horiz-adv-x="429" />
<glyph unicode="&#x2001;" horiz-adv-x="859" />
<glyph unicode="&#x2002;" horiz-adv-x="429" />
<glyph unicode="&#x2003;" horiz-adv-x="859" />
<glyph unicode="&#x2004;" horiz-adv-x="286" />
<glyph unicode="&#x2005;" horiz-adv-x="214" />
<glyph unicode="&#x2006;" horiz-adv-x="143" />
<glyph unicode="&#x2007;" horiz-adv-x="143" />
<glyph unicode="&#x2008;" horiz-adv-x="107" />
<glyph unicode="&#x2009;" horiz-adv-x="171" />
<glyph unicode="&#x200a;" horiz-adv-x="47" />
<glyph unicode="&#x2010;" horiz-adv-x="294" d="M36 254v58h222v-58h-222z" />
<glyph unicode="&#x2011;" horiz-adv-x="294" d="M36 254v58h222v-58h-222z" />
<glyph unicode="&#x2012;" horiz-adv-x="294" d="M36 254v58h222v-58h-222z" />
<glyph unicode="&#x2013;" horiz-adv-x="597" d="M40 254v58h517v-58h-517z" />
<glyph unicode="&#x2014;" horiz-adv-x="763" d="M40 254v58h683v-58h-683z" />
<glyph unicode="&#x2018;" horiz-adv-x="230" d="M170 664v-46q-59 -8 -60 -83v-2h36v-114h-86v85q0 76 26 114t84 46z" />
<glyph unicode="&#x2019;" horiz-adv-x="230" d="M60 413v46q59 8 60 83v2h-36v114h86v-85q0 -77 -26 -115t-84 -45z" />
<glyph unicode="&#x201a;" horiz-adv-x="230" d="M60 -131v46q59 8 60 83v2h-36v114h86v-85q0 -77 -26 -115t-84 -45z" />
<glyph unicode="&#x201c;" horiz-adv-x="393" d="M170 664v-46q-59 -8 -60 -83v-2h36v-114h-86v85q0 76 26 114t84 46zM333 664v-46q-59 -8 -60 -83v-2h36v-114h-86v85q0 76 26 114t84 46z" />
<glyph unicode="&#x201d;" horiz-adv-x="393" d="M60 413v46q59 8 60 83v2h-36v114h86v-85q0 -77 -26 -115t-84 -45zM223 413v46q59 8 60 83v2h-36v114h86v-85q0 -77 -26 -115t-84 -45z" />
<glyph unicode="&#x201e;" horiz-adv-x="393" d="M60 -131v46q59 8 60 83v2h-36v114h86v-85q0 -77 -26 -115t-84 -45zM223 -131v46q59 8 60 83v2h-36v114h86v-85q0 -77 -26 -115t-84 -45z" />
<glyph unicode="&#x2022;" horiz-adv-x="377" d="M189 221q-27 0 -44.5 23t-17.5 65t17.5 65t44.5 23t44.5 -23t17.5 -65t-17.5 -65t-44.5 -23z" />
<glyph unicode="&#x2026;" horiz-adv-x="778" d="M92 0v114h86v-114h-86zM346 0v114h86v-114h-86zM599 0v114h86v-114h-86z" />
<glyph unicode="&#x202f;" horiz-adv-x="171" />
<glyph unicode="&#x2039;" horiz-adv-x="372" d="M225 58l-155 222l155 222h72l-156 -222l156 -222h-72z" />
<glyph unicode="&#x203a;" horiz-adv-x="372" d="M74 58l156 222l-156 222h73l155 -222l-155 -222h-73z" />
<glyph unicode="&#x205f;" horiz-adv-x="214" />
<glyph unicode="&#x20ac;" d="M408 557q-82 0 -137 -41t-74 -114h294l-12 -42h-290q-2 -24 -2 -38q0 -20 1 -29h271l-12 -42h-252q17 -72 68.5 -111.5t131.5 -39.5q81 0 126 24v-71q-53 -24 -140 -24q-111 0 -181 58.5t-88 163.5h-78l16 42h58q-1 9 -1 27q0 14 2 40h-75l16 42h65q22 106 98.5 166.5 t194.5 60.5q83 0 143 -26l-21 -70q-58 24 -122 24z" />
<glyph unicode="&#x2122;" horiz-adv-x="792" d="M151 318v286h-109v54h279v-54h-110v-286h-60zM375 318v340h94l71 -173h2l70 173h95v-340h-61v262l-6 1l-91 -221h-17l-91 221l-5 -1v-262h-61z" />
<glyph unicode="&#x25fc;" horiz-adv-x="495" d="M0 495h495v-495h-495v495z" />
</font>
</defs>
</svg>
