<?xml version="1.0" encoding="utf-8"?>
<!-- Generator: Adobe Illustrator 27.4.1, SVG Export Plug-In . SVG Version: 6.00 Build 0)  -->
<!DOCTYPE svg PUBLIC "-//W3C//DTD SVG 1.1//EN" "http://www.w3.org/Graphics/SVG/1.1/DTD/svg11.dtd" [
	<!ENTITY ns_extend "http://ns.adobe.com/Extensibility/1.0/">
	<!ENTITY ns_ai "http://ns.adobe.com/AdobeIllustrator/10.0/">
	<!ENTITY ns_graphs "http://ns.adobe.com/Graphs/1.0/">
	<!ENTITY ns_vars "http://ns.adobe.com/Variables/1.0/">
	<!ENTITY ns_imrep "http://ns.adobe.com/ImageReplacement/1.0/">
	<!ENTITY ns_sfw "http://ns.adobe.com/SaveForWeb/1.0/">
	<!ENTITY ns_custom "http://ns.adobe.com/GenericCustomNamespace/1.0/">
	<!ENTITY ns_adobe_xpath "http://ns.adobe.com/XPath/1.0/">
]>
<svg version="1.1" id="Layer_1" xmlns:x="&ns_extend;" xmlns:i="&ns_ai;" xmlns:graph="&ns_graphs;"
	 xmlns="http://www.w3.org/2000/svg" xmlns:xlink="http://www.w3.org/1999/xlink" x="0px" y="0px" viewBox="0 0 1464.8 353.1"
	 style="enable-background:new 0 0 1464.8 353.1;" xml:space="preserve">
<style type="text/css">
	.st0{fill:#FFFFFF;stroke:#FFFFFF;stroke-width:5;stroke-miterlimit:10;}
</style>
<metadata>
	<sfw  xmlns="&ns_sfw;">
		<slices></slices>
		<sliceSourceBounds  bottomLeftOrigin="true" height="340.2" width="1443.2" x="754.4" y="2.7"></sliceSourceBounds>
	</sfw>
</metadata>
<g>
	<path class="st0" d="M235.5,97.9c0,8.6-4.3,12.9-12.8,12.9h-80.6v156.9c0,8.6-4.2,12.9-12.6,12.9c-8.9,0-14.3-0.3-16-0.8
		c-5-1.5-7.5-5.6-7.5-12.1V110.8h-80c-8.6,0-12.9-4.3-12.9-12.9c0-5.8,0.7-9.8,2-12.1c1.9-3.1,5.5-4.6,11-4.6h196.8
		c5.3,0,8.9,1.5,10.8,4.6C234.8,88.1,235.5,92.1,235.5,97.9z"/>
	<path class="st0" d="M451.4,257.2c4.9,3.5,7.3,7.5,7.3,12c0,7.6-4.9,11.5-14.8,11.5h-10.3c-2.8,0-5.4-0.9-7.5-2.7L349,221.6
		l-77.9,56.3c-2.3,1.9-4.8,2.8-7.5,2.8h-10.8c-9.8,0-14.7-3.8-14.7-11.5c0-4.5,2.5-8.5,7.4-12l77-55L246.2,147c-4.7-3.5-7-7.5-7-12
		c0-7.6,4.9-11.5,14.7-11.5h11c2.7,0,5.2,0.8,7.5,2.5l76.8,56.4l75-56.2c2.4-1.8,5-2.7,7.7-2.7h10.3c9.8,0,14.7,3.8,14.7,11.3
		c0,4.5-2.3,8.5-7,11.9l-74.2,54.8L451.4,257.2z"/>
	<path class="st0" d="M709.2,97.9c0,8.6-4.3,12.9-12.8,12.9H567c-31.4,0-47.1,6.3-47.1,18.8v98.8c0,14.8,17.4,22.3,52.2,22.3h123.5
		c8.8,0,13.2,5,13.2,14.9c0,10-4.4,15-13.2,15H572.1c-16.7,0-28.7-0.7-36-2c-7.9-1.3-16.2-4.3-25-9c-9.7-5-16.6-10.5-20.8-16.4
		c-4.5-6.2-6.7-14.3-6.7-24.2v-99.2c0-12.4,5.8-23.1,17.3-32.1c9.8-7.4,21.4-12.3,34.8-14.7c7.1-1.2,17.3-1.8,30.6-1.8h130
		c5.3,0,8.9,1.6,10.8,4.7C708.5,88.1,709.2,92.1,709.2,97.9z"/>
	<path class="st0" d="M832.8,139.9c0,8.5-4.3,12.8-12.9,12.8c-1,0-3.1,0-6.5,0c-3.3,0-6.1,0-8.3,0c-26.5,0-39.7,6.6-39.7,19.8v95.2
		c0,6.4-2.3,10.4-7,11.9c-1.9,0.7-6.9,1-15.2,1c-8.5,0-12.8-4.4-12.8-13.1l0.5-95.3c0-32.4,29.7-48.6,89-48.6
		C828.5,123.6,832.8,129,832.8,139.9z"/>
	<path class="st0" d="M1074.4,278c0,21.6-12.9,35.5-38.6,41.7c-11.2,2.7-32.3,4.1-63.3,4.1c-5.5,0-9.1-1.6-11-4.7
		c-1.3-2.3-2-6.3-2-12.1c0-8.6,4.3-12.9,12.9-12.9c0.3,0,2.9,0.1,7.9,0.2c4.9,0.2,9.3,0.2,13.2,0.2c30.8,0,46.1-5.1,46.1-15.4H936.7
		c-51.9,0-77.9-15.6-77.9-46.8v-95.9c0-6.4,2.3-10.4,6.9-11.9c2-0.7,6.9-1,14.9-1c8.5,0,12.8,4.3,12.8,12.9v95.9
		c0,12,14.4,18,43.3,18h103.1V136.5c0-8.6,4.3-12.9,12.9-12.9c8,0,12.9,0.3,14.9,1c4.6,1.6,6.9,5.6,6.9,11.9V278z"/>
	<path class="st0" d="M1312.4,230.6c0,32.4-24.9,48.6-74.6,48.6h-107.6V311c0,6.3-2.3,10.2-7,11.8c-1.9,0.7-6.8,1-14.7,1
		c-8.5,0-12.8-4.3-12.8-12.8V170.2c0-19.2,8.9-32.4,26.8-39.6c11.8-4.7,29.1-7,52-7h55c55.3,0,82.9,15.4,82.9,46.1V230.6z
		 M1277.6,231v-60.8c0-8.3-6.4-13.7-19.1-16.2c-5.5-1-15-1.5-28.6-1.5H1176c-30.5,0-45.8,6.2-45.8,18.5v79.3h107.6
		C1264.3,250.4,1277.6,243.9,1277.6,231z"/>
	<path class="st0" d="M1448,140.9c0,8.5-4.3,12.8-12.9,12.8h-54.6v114c0,8.6-4.3,12.9-12.8,12.9c-8,0-12.9-0.4-14.9-1.1
		c-4.6-1.5-6.9-5.5-6.9-11.8v-114h-12.1c-8.9,0-13.4-4.8-13.4-14.4c0-9.6,4.5-14.4,13.4-14.4h12.1V94c0-8.5,4.3-12.8,12.8-12.8
		c8.1,0,13,0.3,14.9,1c4.6,1.5,6.9,5.5,6.9,11.8v30.9h54.6C1443.7,124.9,1448,130.2,1448,140.9z"/>
</g>
</svg>
