<?xml version="1.0" encoding="utf-8"?>
<!-- Generator: Adobe Illustrator 27.4.1, SVG Export Plug-In . SVG Version: 6.00 Build 0)  -->
<!DOCTYPE svg PUBLIC "-//W3C//DTD SVG 1.1//EN" "http://www.w3.org/Graphics/SVG/1.1/DTD/svg11.dtd" [
	<!ENTITY ns_extend "http://ns.adobe.com/Extensibility/1.0/">
	<!ENTITY ns_ai "http://ns.adobe.com/AdobeIllustrator/10.0/">
	<!ENTITY ns_graphs "http://ns.adobe.com/Graphs/1.0/">
	<!ENTITY ns_vars "http://ns.adobe.com/Variables/1.0/">
	<!ENTITY ns_imrep "http://ns.adobe.com/ImageReplacement/1.0/">
	<!ENTITY ns_sfw "http://ns.adobe.com/SaveForWeb/1.0/">
	<!ENTITY ns_custom "http://ns.adobe.com/GenericCustomNamespace/1.0/">
	<!ENTITY ns_adobe_xpath "http://ns.adobe.com/XPath/1.0/">
]>
<svg version="1.1" id="Layer_1" xmlns:x="&ns_extend;" xmlns:i="&ns_ai;" xmlns:graph="&ns_graphs;"
	 xmlns="http://www.w3.org/2000/svg" xmlns:xlink="http://www.w3.org/1999/xlink" x="0px" y="0px" viewBox="0 0 742.21 353.07"
	 style="enable-background:new 0 0 742.21 353.07;" xml:space="preserve">
<style type="text/css">
	.st0{fill:#A724FF;}
</style>
<metadata>
	<sfw  xmlns="&ns_sfw;">
		<slices></slices>
		<sliceSourceBounds  bottomLeftOrigin="true" height="353.07" width="742.21" x="50.24" y="55.97"></sliceSourceBounds>
	</sfw>
</metadata>
<g>
	<path class="st0" d="M74.94,5.22c2.72-1.96,4.96-5.48,8.71-5.17c128.73,0.02,257.46-0.04,386.19,0.02c3.1-0.03,3.7,3.84,4.67,6.05
		c0.58,1.34,1.14,2.68,1.74,4.01c0,0.21,0,0.63,0,0.84c0.62,1.32,1.24,2.65,1.83,3.99c0.54,1.86,1.38,3.61,2.32,5.3
		c-0.08,0.17-0.23,0.52-0.3,0.69c0.76,1.36,1.49,2.75,2.2,4.15l-0.08,0.84c0.67,1.38,1.34,2.78,2.06,4.14l-0.07,0.89
		c0.91,1.66,1.72,3.39,2.23,5.22c0.54,1.26,1.08,2.51,1.64,3.77c0.55,1.7,1.18,3.38,1.9,5.02c0.78,2.06,1.6,4.11,2.5,6.12
		c0.41,1.2,0.74,2.41,0.99,3.65l0.38-0.46c0.44,1.29,0.92,2.57,1.43,3.84l-0.08,0.11c0.64,1.65,1.22,3.35,2.16,4.86l-0.08,0.83
		c1,1.77,1.82,3.66,2.11,5.7l0.5-0.15c0.38,1.27,0.84,2.5,1.38,3.71c-0.01,0.2-0.02,0.58-0.03,0.78c0.65,1.4,1.23,2.86,2.1,4.15
		l-0.15,0.84c1.08,1.76,1.86,3.68,2.18,5.74c0.74-0.12,1.48-0.23,2.24-0.34c4.39-4.76,9.61-8.69,14.44-13.01
		c7.73-6.95,15.66-13.67,23.41-20.6c5.38-4.64,10.73-9.31,15.99-14.08c0.28-0.2,0.84-0.6,1.12-0.8c5.13-4.64,10.31-9.22,15.59-13.7
		l0.12-0.31c5.5-4.58,10.84-9.36,16.16-14.16c2.73-1.89,5.11-4.23,7.52-6.52c0.91-1.1,2.39-1.14,3.72-1.13c33.7,0,67.41,0,101.11,0
		c11.81,0.15,23.62-0.35,35.42,0.28c-4.44,5.92-11.01,9.79-16.18,15.02c-0.29,0.21-0.85,0.65-1.13,0.87
		c-4.88,4.59-10.15,8.72-14.93,13.4l-0.46-0.05c-0.25,0.28-0.75,0.84-1,1.12c-2.53,2.17-4.96,4.45-7.46,6.64
		c-2.79,2.21-5.3,4.73-7.99,7.03c-8.23,7.09-16.32,14.35-24.51,21.49c-0.27,0.21-0.8,0.64-1.06,0.86
		c-5.08,4.65-10.38,9.05-15.44,13.72c-0.29,0.21-0.85,0.65-1.14,0.87c-5.45,4.84-10.89,9.69-16.43,14.43
		c-2.71,2.29-5.21,4.82-8,7.02c-3.06,2.59-5.88,5.47-9.05,7.93c-2.49,2.23-4.94,4.5-7.5,6.63c-5.26,4.78-10.8,9.24-15.88,14.22
		c-0.11,0-0.34,0.01-0.46,0.02c-5.58,5.21-11.38,10.17-17.11,15.21c-2.82,2.29-5.27,5.01-8.23,7.12l-0.09,0.32
		c-2.71,2.03-5.03,4.51-7.63,6.65c-0.27,0.22-0.8,0.65-1.06,0.86c-2.87,2.5-5.6,5.16-8.56,7.54c-2.39,2.05-4.71,4.18-6.97,6.37
		l-0.95-0.09c0.33,3.54,2.06,6.69,3.31,9.95c17.07,42.59,34.33,85.11,51.32,127.73c2.05,4.89,4.05,9.8,5.91,14.76
		c1.48,3.36,2.77,6.8,4.11,10.22c1.9,5.06,4.22,9.93,6.56,14.8c-46.43,0.12-92.86,0.05-139.29,0.04
		c-6.88-17.94-14.36-35.65-21.51-53.48c-4.58-10.83-8.58-21.92-13.52-32.59c-1.23,0.42-2.33,1.06-3.29,1.92
		c-28.83,25.47-57.77,50.83-86.68,76.22c-2.97,2.64-5.6,5.93-9.06,7.86c-46.25,0.34-92.52-0.2-138.77,0.09
		c36.7-31.46,72.74-63.68,109.24-95.37c30.58-26.96,61.35-53.7,91.9-80.7c0.03-0.66,0.08-1.98,0.11-2.64l-0.69,0.2
		c-0.53-1.54-1.07-3.05-1.63-4.56c-0.74-1.66-1.45-3.33-2.07-5.03c-0.76-1.79-1.5-3.6-1.96-5.5l-0.53,0.15
		c-0.29-2.01-1.08-3.89-2.12-5.62v-0.93c-0.69-1.34-1.31-2.7-1.92-4.06c-0.48-1.49-0.99-2.96-1.44-4.44l-0.49-0.03
		c-0.41-1.56-0.95-3.07-1.5-4.57c-0.83-1.74-1.56-3.54-2.04-5.41l-0.48-0.06c-0.39-1.96-1.21-3.8-2.22-5.51l0.09-0.84
		c-0.72-1.38-1.41-2.78-2.1-4.17l-0.03-0.78c-0.58-1.16-1.01-2.38-1.3-3.64l-0.52,0.02c-0.46-2.43-1.84-4.55-2.26-6.98l-0.54,0.02
		c-0.36-1.17-0.74-2.32-1.13-3.47c-0.61-1.77-1.35-3.5-2.28-5.12c0.03-0.23,0.08-0.69,0.11-0.92c-1.07-1.71-1.9-3.58-2.21-5.59
		l-0.7,0.22c-0.07-0.81-0.2-2.42-0.26-3.23l-1.13,0.04c0.07-0.45,0.22-1.35,0.29-1.8c-40.63-0.21-81.27-0.37-121.9-0.22
		c-0.07,0.77-0.22,2.3-0.3,3.07l-0.76,0.02c-0.39,1.68-0.86,3.35-1.27,5.03l-0.5-0.12c-0.76,2.72-1.8,5.36-2.48,8.11l-0.5-0.1
		c-0.26,1.18-0.57,2.34-0.91,3.51c-1.88,4.58-3.4,9.31-5.22,13.92c-0.52,1.51-1.02,3.02-1.44,4.56l-0.65-0.02
		c-0.05,0.78-0.15,2.35-0.19,3.14l-0.58-0.12c-0.34,0.89-1.01,2.67-1.35,3.57c0.08,0.36,0.23,1.07,0.31,1.43l-1.1-0.12
		c-0.07,0.69-0.23,2.09-0.31,2.78c-0.64,1.25-1.28,2.5-1.9,3.75c0.08,0.41,0.23,1.23,0.31,1.64l-1.08-0.13
		c-0.08,0.69-0.24,2.09-0.32,2.79c-0.64,1.28-1.23,2.58-1.84,3.88c0,0.22,0.01,0.67,0.01,0.89c-1.12,2.24-1.8,4.65-2.74,6.96
		c-0.86,2.4-1.71,4.8-2.65,7.17c-0.34,1.11-0.64,2.23-0.9,3.36c-0.15,0.01-0.45,0.03-0.6,0.03c-0.42,1.67-0.84,3.34-1.26,5.01
		l-0.75-0.08c-0.06,1.07-0.11,2.14-0.16,3.21l-0.73-0.11c-0.68,2.59-1.61,5.1-2.48,7.64c-1.12,2.61-2.01,5.32-2.99,7.99
		c-0.93,2.22-1.64,4.51-2.53,6.74c-0.51,1.41-1.05,2.8-1.58,4.19c-0.33,1.14-0.64,2.28-0.92,3.44l-0.73-0.13
		c-0.05,0.81-0.16,2.45-0.21,3.26l-0.84-0.26c-0.03,0.4-0.11,1.21-0.15,1.62c-0.39,1.21-0.75,2.44-1.07,3.68l-0.41-0.39
		c-0.36,1.24-0.74,2.48-1.15,3.72c-0.55,1.54-1.06,3.1-1.43,4.7l-0.46-0.34c-0.71,3.69-2.37,7.09-3.58,10.63
		c-0.49,1.3-0.98,2.61-1.48,3.91c-0.48,1.4-1.02,2.79-1.53,4.18c-0.35,1.15-0.68,2.3-0.99,3.46l-0.43-0.18
		c-0.08,1.42-0.53,2.67-1.35,3.75c0.02,0.21,0.07,0.62,0.09,0.82c-0.59,1.33-1.14,2.69-1.72,4.03c-0.31,0.99-0.64,1.99-0.97,2.98
		c-0.9,2.3-1.75,4.63-2.53,6.98c-1.55,3.64-2.74,7.42-4.13,11.12c-0.37,1.17-0.7,2.35-1,3.55l-0.55-0.1
		c-0.33,1.51-0.79,2.99-1.27,4.46c-0.52,1.15-0.88,2.36-1.13,3.61l-0.53-0.08c-0.43,1.69-0.92,3.37-1.33,5.07l-0.71-0.12
		c-0.07,0.68-0.22,2.04-0.29,2.71c-0.61,1.23-1.13,2.51-1.61,3.8c-0.33,1-0.69,1.99-1.07,2.98c-0.96,2.66-1.95,5.31-2.94,7.97
		c-0.35,1.03-0.72,2.06-1.13,3.08c-0.54,1.53-1.03,3.09-1.41,4.67l-0.51-0.23c-1.95,6.87-5.11,13.36-7.34,20.15
		c-2.1,4.65-2.65,10.08-5.35,14.37c-41.58,0.19-83.17,0.03-124.76,0.09c2.95-8.32,6.2-16.52,8.99-24.89
		c0.52-2.48,1.55-4.81,2.46-7.16c0.56-1.28,0.94-2.64,1.38-3.96c1.34-1.51,1.39-3.57,1.62-5.47c0.17,0,0.51,0,0.68,0
		c0.41-1.67,0.89-3.31,1.31-4.97h0.72c0.04-0.77,0.12-2.3,0.16-3.06c0.21,0.01,0.62,0.03,0.83,0.04c0.37-1.7,0.81-3.36,1.16-5.05
		c0.2,0.06,0.58,0.18,0.78,0.25c0.06-0.86,0.2-2.58,0.27-3.44l0.67,0.22c0.37-1.56,0.86-3.1,1.39-4.61c0.43-1,0.81-2.01,1.15-3.04
		c0.48-1.26,0.94-2.52,1.42-3.77c0.79-2.4,1.71-4.77,2.58-7.15c0.48-1.28,0.95-2.56,1.43-3.83c0.37-1.12,0.81-2.2,1.34-3.25
		c-0.05-0.17-0.14-0.51-0.19-0.68c0.68-1.23,1.16-2.53,1.45-3.9l0.39,0.38c0.25-1.35,0.68-2.63,1.29-3.85
		c-0.05-0.19-0.15-0.55-0.2-0.73c0.75-1.1,1.23-2.31,1.45-3.63l0.44-0.04c0.27-1.14,0.54-2.27,0.88-3.39
		c0.57-1.36,1.14-2.72,1.64-4.11c0.36-0.99,0.72-1.98,1.07-2.98c0.47-1.27,0.93-2.54,1.42-3.8c0.3-1.13,0.74-2.19,1.32-3.2
		c0.01-0.19,0.01-0.58,0.02-0.77c0.44-1.23,0.85-2.45,1.26-3.69l0.41,0.14c0.31-1.19,0.64-2.37,1.01-3.53
		c0.53-1.55,1.06-3.09,1.49-4.66l0.47,0.14c0.31-1.3,0.72-2.56,1.22-3.8c-0.03-0.14-0.08-0.43-0.1-0.58
		c0.67-1.21,1.14-2.51,1.42-3.87l0.6,0.2c0.09-0.65,0.25-1.96,0.33-2.62c0.76-1.63,1.43-3.31,2.01-5.01
		c0.78-1.95,1.46-3.95,2.24-5.9c0.33-1.16,0.62-2.32,0.87-3.49l0.6,0.05c0.39-1.7,0.87-3.38,1.29-5.06l0.75,0.09
		c0.04-0.78,0.11-2.35,0.15-3.14l0.79,0.15c0.39-1.74,0.86-3.45,1.27-5.18l0.74,0.26c0.06-0.85,0.17-2.56,0.23-3.41l0.71,0.33
		c0.4-1.74,0.89-3.46,1.31-5.19l0.75,0.24c0.05-0.8,0.15-2.41,0.2-3.21l0.64,0.12c0.41-1.57,0.89-3.13,1.36-4.68
		c0.99-2.22,1.85-4.48,2.62-6.78c0.84-2.4,1.72-4.79,2.71-7.14c0.32-1.16,0.6-2.34,0.86-3.52l0.58,0.14
		c0.39-1.7,0.89-3.36,1.33-5.05l0.62,0.09c0.08-0.84,0.26-2.53,0.35-3.37l1.2,0.2c-0.12-0.31-0.34-0.95-0.46-1.27
		c0.47-1.23,0.93-2.46,1.38-3.7l0.65,0.01c0.01-0.76,0.05-2.26,0.06-3.02c0.18,0,0.55,0,0.73,0c0.24-0.84,0.72-2.53,0.96-3.38
		c0.97-2.68,1.95-5.36,3.04-7.99c0.66-2.07,1.44-4.1,2.26-6.11c0.04-0.21,0.12-0.64,0.16-0.85c0.53-1.21,0.91-2.45,1.16-3.74
		l0.45,0.25c0.26-1.31,0.66-2.56,1.21-3.76c0.03-0.19,0.08-0.55,0.11-0.73c0.54-1.26,0.95-2.56,1.24-3.9l0.42,0.39
		c0.29-1.2,0.61-2.4,0.95-3.6c0.52-1.38,1.06-2.76,1.55-4.15c1.02-2.65,1.93-5.34,3.02-7.97c0.36-1.07,0.67-2.16,0.99-3.25
		C82.33,91.58,41.17,91.75,0,91.56c1.3-3,3.15-5.71,5.06-8.35c0.77-1.11,1.56-2.2,2.32-3.31c1.24-1.58,2.45-3.17,3.63-4.79
		c1.02-1.32,2.05-2.63,3.05-3.97c0.99-1.35,2.06-2.64,3.21-3.86l-0.04-0.42c2.98-3.15,5.49-6.69,8.3-9.98
		c1.77-2.24,3.67-4.36,5.51-6.53c2-2.64,4.38-4.95,6.5-7.5c0.21-0.27,0.64-0.81,0.86-1.08c3.47-3.89,6.95-7.77,10.45-11.64
		c2.24-2.42,4.55-4.78,6.82-7.17c0.99-1.01,1.98-2.02,2.95-3.05C63.74,14.66,69.2,9.78,74.94,5.22z"/>
</g>
</svg>
